<?xml version="1.0" encoding="utf-8"?>
<!-- Generator: Adobe Illustrator 26.5.0, SVG Export Plug-In . SVG Version: 6.00 Build 0)  -->
<svg version="1.1" id="레이어_1" xmlns="http://www.w3.org/2000/svg" xmlns:xlink="http://www.w3.org/1999/xlink" x="0px"
	 y="0px" viewBox="0 0 110 110" style="enable-background:new 0 0 110 110;" xml:space="preserve">
<style type="text/css">
	.st0{fill:#E9F8FF;}
	.st1{fill:#FFFFFF;}
	.st2{clip-path:url(#SVGID_00000156568159371476063510000005043267869289662118_);}
	.st3{fill:#2C4E5F;}
	.st4{fill:#FFD973;}
	.st5{fill:#79559C;}
	.st6{fill:#00D1EB;}
	.st7{fill:#FF8B94;}
	.st8{fill:#5DDAE2;}
</style>
<g id="icon09" transform="translate(-1501 -534)">
	<g id="그룹_43">
		<circle id="타원_9" class="st0" cx="1556" cy="589" r="55"/>
		<g id="그룹_42" transform="translate(1517 560)">
			<path id="패스_232" class="st1" d="M56.6,0.6v44.9l7.2,11.2V7.1L56.6,0.6z"/>
			<g id="그룹_41">
				<g>
					<defs>
						<rect id="SVGID_1_" y="0" width="78.4" height="57.2"/>
					</defs>
					<clipPath id="SVGID_00000134933852775675059100000009458420562661097883_">
						<use xlink:href="#SVGID_1_"  style="overflow:visible;"/>
					</clipPath>
					<g id="그룹_40" style="clip-path:url(#SVGID_00000134933852775675059100000009458420562661097883_);">
						<path id="패스_233" class="st3" d="M63.7,57.2c-0.2,0-0.4-0.1-0.5-0.3l-7.2-11.2c-0.1-0.1-0.1-0.2-0.1-0.3V0.6
							c0-0.2,0.1-0.4,0.3-0.5c0.2-0.1,0.4,0,0.6,0.1l7.2,6.6c0.1,0.1,0.2,0.2,0.2,0.4v49.5C64.3,56.9,64,57.2,63.7,57.2
							C63.7,57.2,63.7,57.2,63.7,57.2 M57.1,45.3l6.1,9.5V7.4l-6.1-5.6L57.1,45.3z"/>
						
							<rect id="사각형_86" x="74.1" y="43" transform="matrix(0.7071 -0.7071 0.7071 0.7071 -9.3837 66.5845)" class="st4" width="3.2" height="3.2"/>
						<path id="패스_234" class="st5" d="M75.7,47.3c-0.1,0-0.2,0-0.3-0.1l-2.3-2.3c-0.2-0.2-0.2-0.4,0-0.6c0,0,0,0,0,0l2.3-2.3
							c0.2-0.2,0.4-0.2,0.6,0c0,0,0,0,0,0l2.3,2.3c0.2,0.2,0.2,0.4,0,0.6L76,47.2C75.9,47.2,75.8,47.3,75.7,47.3 M74,44.6l1.7,1.7
							l1.7-1.7l-1.7-1.7L74,44.6z"/>
						
							<rect id="사각형_87" x="1.4" y="9.6" transform="matrix(0.7068 -0.7074 0.7074 0.7068 -7.0849 5.3832)" class="st6" width="3.2" height="3.2"/>
						<path id="패스_235" class="st5" d="M3,14.1l-2.8-2.8L3,8.4l2.8,2.8L3,14.1z M1.3,11.2L3,12.9l1.7-1.7L3,9.6L1.3,11.2z"/>
						<path id="패스_236" class="st7" d="M1.8,50.8H0.6c-0.3,0-0.6-0.2-0.6-0.5s0.2-0.6,0.5-0.6c0,0,0,0,0,0h1.3
							c0.3,0,0.6,0.2,0.6,0.5S2.1,50.8,1.8,50.8C1.8,50.8,1.8,50.8,1.8,50.8"/>
						<path id="패스_237" class="st7" d="M5.4,50.8H4.1c-0.3,0-0.6-0.2-0.6-0.5c0-0.3,0.2-0.6,0.5-0.6c0,0,0,0,0,0h1.3
							c0.3,0,0.6,0.2,0.6,0.5C5.9,50.5,5.7,50.8,5.4,50.8C5.4,50.8,5.4,50.8,5.4,50.8"/>
						<path id="패스_238" class="st7" d="M3,49.6c-0.3,0-0.6-0.2-0.6-0.6l0,0v-1.3c0-0.3,0.2-0.6,0.5-0.6c0.3,0,0.6,0.2,0.6,0.5
							c0,0,0,0,0,0v1.3C3.5,49.4,3.3,49.6,3,49.6C3,49.6,3,49.6,3,49.6"/>
						<path id="패스_239" class="st7" d="M3,53.2c-0.3,0-0.5-0.2-0.6-0.5c0,0,0,0,0,0v-1.3c0-0.3,0.2-0.5,0.6-0.5
							c0.3,0,0.5,0.2,0.5,0.5v1.3C3.5,52.9,3.3,53.2,3,53.2C3,53.2,3,53.2,3,53.2"/>
						<path id="패스_240" class="st6" d="M71.7,14.3h-1.3c-0.3,0-0.6-0.2-0.6-0.5c0-0.3,0.2-0.6,0.5-0.6c0,0,0,0,0,0h1.3
							c0.3,0,0.6,0.2,0.6,0.5C72.2,14,72,14.3,71.7,14.3C71.7,14.3,71.7,14.3,71.7,14.3"/>
						<path id="패스_241" class="st6" d="M75.2,14.3h-1.3c-0.3,0-0.5-0.2-0.5-0.6c0-0.3,0.2-0.5,0.5-0.5h1.3
							c0.3,0,0.5,0.2,0.5,0.6C75.7,14.1,75.5,14.3,75.2,14.3"/>
						<path id="패스_242" class="st6" d="M72.8,13.2c-0.3,0-0.5-0.2-0.6-0.5c0,0,0,0,0,0v-1.3c0-0.3,0.2-0.6,0.6-0.6
							s0.6,0.2,0.6,0.6v1.3C73.3,12.9,73.1,13.2,72.8,13.2C72.8,13.2,72.8,13.2,72.8,13.2"/>
						<path id="패스_243" class="st6" d="M72.8,16.7c-0.3,0-0.5-0.2-0.6-0.5c0,0,0,0,0,0v-1.3c0-0.3,0.2-0.6,0.6-0.6
							s0.6,0.2,0.6,0.6v1.3C73.3,16.5,73.1,16.7,72.8,16.7C72.8,16.7,72.8,16.7,72.8,16.7"/>
						<path id="패스_244" class="st7" d="M14.8,0.6c-2-0.1-3.7,1.4-3.8,3.4v45c0,1.9,4.6,7.7,6.7,7.7h38.9V0.6H14.8z"/>
						<path id="패스_245" class="st3" d="M56.6,57.2H17.7c-2.5,0-7.2-6.2-7.2-8.2v-45c0.1-2.3,2.1-4,4.3-3.9h41.8
							c0.3,0,0.6,0.2,0.6,0.5c0,0,0,0,0,0v56.1C57.1,56.9,56.9,57.2,56.6,57.2C56.6,57.2,56.6,57.2,56.6,57.2 M14.8,1.1
							c-1.7-0.1-3.1,1.2-3.2,2.8v45c0,1.6,4.4,7.1,6.1,7.1H56v-55H14.8z"/>
						<path id="패스_246" class="st1" d="M16.9,56.6h46.5l-7-12H16.9c-3.3,0-6,2.7-6,6S13.6,56.6,16.9,56.6"/>
						<path id="패스_247" class="st3" d="M63.5,57.2H16.9c-3.6-0.1-6.5-3-6.4-6.7c0.1-3.5,2.9-6.4,6.4-6.4h39.6
							c0.2,0,0.4,0.1,0.5,0.3l7,12c0.2,0.3,0.1,0.6-0.2,0.8C63.6,57.1,63.5,57.2,63.5,57.2 M16.9,45.2c-3,0.1-5.4,2.5-5.3,5.6
							c0.1,2.9,2.4,5.3,5.3,5.3h45.6l-6.3-10.9H16.9z"/>
						<rect id="사각형_88" x="16.6" y="53" class="st3" width="39.2" height="0.6"/>
						<rect id="사각형_89" x="16.6" y="50.5" class="st3" width="37.8" height="0.6"/>
						<rect id="사각형_90" x="16.6" y="47.9" class="st3" width="36.4" height="0.6"/>
						<rect id="사각형_91" x="22.7" y="8.2" class="st1" width="22.5" height="6"/>
						<path id="패스_248" class="st3" d="M45.7,14.8H22.1V7.7h23.6V14.8z M23.2,13.7h21.4V8.8H23.2L23.2,13.7z"/>
						<rect id="사각형_92" x="59" y="7.1" class="st3" width="0.6" height="36.9"/>
						<rect id="사각형_93" x="61.3" y="8.9" class="st3" width="0.6" height="36.9"/>
						<path id="패스_249" class="st8" d="M65.1,39.5c0,6.5-5.3,11.9-11.9,11.9c-6.5,0-11.9-5.3-11.9-11.9
							c0-6.5,5.3-11.9,11.9-11.9c0,0,0,0,0,0C59.7,27.6,65.1,32.9,65.1,39.5"/>
						<path id="패스_250" class="st3" d="M53.2,51.9c-6.9,0-12.4-5.6-12.4-12.4c0-6.9,5.6-12.4,12.4-12.4
							c6.9,0,12.4,5.6,12.4,12.4c0,0,0,0,0,0C65.6,46.3,60,51.9,53.2,51.9 M53.2,28.2c-6.2,0-11.3,5.1-11.3,11.3s5.1,11.3,11.3,11.3
							s11.3-5.1,11.3-11.3C64.5,33.2,59.4,28.2,53.2,28.2"/>
						<path id="패스_251" class="st1" d="M52.7,44.3l-5.8-5.6l1.7-1.8l4,3.9l5.1-5.5l1.8,1.7L52.7,44.3z"/>
						<path id="패스_252" class="st3" d="M52.7,44.8c-0.1,0-0.3-0.1-0.4-0.2l-5.8-5.6c-0.2-0.2-0.2-0.6,0-0.8c0,0,0,0,0,0l1.7-1.8
							c0.1-0.1,0.2-0.2,0.4-0.2c0.1,0,0.3,0,0.4,0.2l3.6,3.5l4.7-5.1c0.1-0.1,0.2-0.2,0.4-0.2c0.1,0,0.3,0,0.4,0.1l1.8,1.7
							c0.2,0.2,0.2,0.6,0,0.8l-6.8,7.3C53,44.8,52.8,44.8,52.7,44.8L52.7,44.8z M47.7,38.7l5,4.8l6-6.5l-1-0.9L53,41.2
							c-0.1,0.1-0.2,0.2-0.4,0.2c-0.1,0-0.3-0.1-0.4-0.2l-3.6-3.5L47.7,38.7z"/>
					</g>
				</g>
			</g>
		</g>
	</g>
</g>
</svg>
