<?xml version="1.0" encoding="utf-8"?>
<!-- Generator: Adobe Illustrator 26.5.0, SVG Export Plug-In . SVG Version: 6.00 Build 0)  -->
<svg version="1.1" id="레이어_1" xmlns="http://www.w3.org/2000/svg" xmlns:xlink="http://www.w3.org/1999/xlink" x="0px"
	 y="0px" viewBox="0 0 110 110" style="enable-background:new 0 0 110 110;" xml:space="preserve">
<style type="text/css">
	.st0{fill:#E9F8FF;}
	.st1{fill:#BFA11C;}
	.st2{clip-path:url(#SVGID_00000070084586517208128120000006754743644956052667_);}
	.st3{fill:#2C4E5F;}
	.st4{fill:#FFFFFF;}
	.st5{fill:#FFD626;}
</style>
<g id="icon01" transform="translate(-311 -534)">
	<circle id="타원_1" class="st0" cx="366" cy="589" r="55"/>
	<g id="그룹_39" transform="translate(336.703 561)">
		<path id="패스_224" class="st1" d="M32.2,9.6l-3.2,7.1H3.9l0.2,26h50.5l0.2-26V9.6H32.2z"/>
		<g id="그룹_38" transform="translate(0 0)">
			<g>
				<defs>
					<rect id="SVGID_1_" x="0" y="0" width="58.6" height="57.1"/>
				</defs>
				<clipPath id="SVGID_00000103263157840062391720000007060977742075467949_">
					<use xlink:href="#SVGID_1_"  style="overflow:visible;"/>
				</clipPath>
				<g id="그룹_37" style="clip-path:url(#SVGID_00000103263157840062391720000007060977742075467949_);">
					<path id="패스_225" class="st3" d="M54.6,43.4H4c-0.4,0-0.6-0.3-0.6-0.6l-0.2-26c0-0.4,0.3-0.6,0.6-0.6c0,0,0,0,0,0h24.8
						l3-6.8C31.7,9.1,32,9,32.2,9h22.5c0.4,0,0.6,0.3,0.6,0.6v7.1l-0.2,26C55.2,43.2,54.9,43.4,54.6,43.4 M4.7,42.2h49.2l0.2-25.4
						v-6.5H32.6l-3,6.8c-0.1,0.2-0.3,0.4-0.6,0.4H4.5L4.7,42.2z"/>
					<rect id="사각형_84" x="9.2" y="0.6" class="st4" width="40.2" height="52.5"/>
					<path id="패스_226" class="st3" d="M49.4,53.8H9.2c-0.4,0-0.6-0.3-0.6-0.6V0.6C8.6,0.3,8.8,0,9.2,0h40.2
						C49.7,0,50,0.3,50,0.6v52.5C50,53.5,49.7,53.8,49.4,53.8 M9.8,52.5h38.9V1.3H9.8L9.8,52.5z"/>
					<path id="패스_227" class="st3" d="M41.2,12.8H17.4c-0.4,0-0.6-0.3-0.6-0.6c0-0.4,0.3-0.6,0.6-0.6c0,0,0,0,0,0h23.7
						c0.4,0,0.6,0.3,0.6,0.6C41.8,12.5,41.5,12.8,41.2,12.8"/>
					<path id="패스_228" class="st3" d="M41.2,19.9H17.4c-0.4,0-0.6-0.3-0.6-0.6c0-0.4,0.3-0.6,0.6-0.6c0,0,0,0,0,0h23.7
						c0.4,0,0.6,0.3,0.6,0.6C41.8,19.6,41.5,19.9,41.2,19.9"/>
					<path id="패스_229" class="st3" d="M41.2,27H17.4c-0.4,0-0.6-0.3-0.6-0.6c0-0.4,0.3-0.6,0.6-0.6l0,0h23.7
						c0.4,0,0.6,0.3,0.6,0.6C41.8,26.7,41.5,27,41.2,27"/>
					<path id="패스_230" class="st5" d="M33.8,23.6l-3.4,7.7H0.6l3,25.1H55l3-25.1v-7.7H33.8z"/>
					<path id="패스_231" class="st3" d="M55,57.1H3.6c-0.3,0-0.6-0.2-0.6-0.6L0,31.4c0-0.4,0.2-0.7,0.6-0.7c0,0,0.1,0,0.1,0H30
						l3.2-7.3c0.1-0.2,0.3-0.4,0.6-0.4H58c0.4,0,0.6,0.3,0.6,0.6v7.7c0,0,0,0.1,0,0.1l-3,25.1C55.6,56.8,55.3,57.1,55,57.1
						 M4.2,55.8h50.3l2.9-24.5v-7H34.2L31,31.5c-0.1,0.2-0.3,0.4-0.6,0.4H1.4L4.2,55.8z"/>
				</g>
			</g>
		</g>
	</g>
</g>
</svg>
