<?xml version="1.0" encoding="utf-8"?>
<!-- Generator: Adobe Illustrator 26.5.0, SVG Export Plug-In . SVG Version: 6.00 Build 0)  -->
<svg version="1.1" id="레이어_1" xmlns="http://www.w3.org/2000/svg" xmlns:xlink="http://www.w3.org/1999/xlink" x="0px"
	 y="0px" viewBox="0 0 110 110" style="enable-background:new 0 0 110 110;" xml:space="preserve">
<style type="text/css">
	.st0{fill:#E9F8FF;}
	.st1{fill:#FFFFFF;}
	.st2{clip-path:url(#SVGID_00000150090464675152593260000014230534771265673093_);}
	.st3{fill:#2C4E5F;}
	.st4{fill:#FFDE51;}
</style>
<g id="icon04" transform="translate(-757 -534)">
	<circle id="타원_4" class="st0" cx="812" cy="589" r="55"/>
	<g id="그룹_18" transform="translate(774 558)">
		<path id="패스_66" class="st1" d="M63.4,50.8L35,66.2L6.6,50.8V0.4l28.4,9l28.4-9V50.8z"/>
		<g id="그룹_17">
			<g>
				<defs>
					<rect id="SVGID_1_" y="0" width="76" height="66.6"/>
				</defs>
				<clipPath id="SVGID_00000076582792208549859480000003693929562071264178_">
					<use xlink:href="#SVGID_1_"  style="overflow:visible;"/>
				</clipPath>
				<g id="그룹_16" style="clip-path:url(#SVGID_00000076582792208549859480000003693929562071264178_);">
					<path id="패스_67" class="st3" d="M35,66.6c-0.1,0-0.1,0-0.2,0L6.4,51.1c-0.1-0.1-0.2-0.2-0.2-0.3V0.4C6.2,0.2,6.3,0,6.6,0
						c0,0,0.1,0,0.1,0L35,9l28.3-9c0.2-0.1,0.4,0,0.5,0.2c0,0,0,0.1,0,0.1v50.4c0,0.1-0.1,0.3-0.2,0.3L35.1,66.5
						C35.1,66.5,35,66.6,35,66.6 M6.9,50.6l28,15.2l28-15.2V0.9L35.1,9.7c-0.1,0-0.2,0-0.2,0L6.9,0.9V50.6z M63.4,50.8L63.4,50.8z"
						/>
					<path id="패스_68" class="st4" d="M60.2,48.7L35,62L9.7,48.7V4.6L35,12.4l25.3-7.9V48.7z"/>
					<path id="패스_69" class="st3" d="M35,62.4c-0.1,0-0.1,0-0.2,0L9.5,49.1c-0.1-0.1-0.2-0.2-0.2-0.3V4.6c0-0.2,0.2-0.4,0.4-0.4
						c0,0,0.1,0,0.1,0L35,12l25.2-7.8c0.2-0.1,0.4,0,0.5,0.2c0,0,0,0.1,0,0.1v44.2c0,0.1-0.1,0.3-0.2,0.3L35.1,62.3
						C35.1,62.4,35,62.4,35,62.4 M10.1,48.5L35,61.6l24.9-13.1V5.1l-24.8,7.7c-0.1,0-0.2,0-0.2,0L10.1,5.1V48.5z M60.2,48.7
						L60.2,48.7z"/>
					<path id="패스_70" class="st3" d="M12.2,50.1c-0.2,0-0.4-0.2-0.4-0.4v-7.9c0-0.2,0.2-0.4,0.4-0.4s0.4,0.2,0.4,0.4l0,0v7.9
						C12.6,50,12.4,50.1,12.2,50.1"/>
					<path id="패스_71" class="st3" d="M14.8,51.4c-0.2,0-0.4-0.2-0.4-0.4v-7.9c0-0.2,0.2-0.4,0.4-0.4s0.4,0.2,0.4,0.4V51
						C15.1,51.3,15,51.4,14.8,51.4"/>
					<path id="패스_72" class="st3" d="M17.3,52.9c-0.2,0-0.4-0.2-0.4-0.4v-7.9c0-0.2,0.2-0.4,0.4-0.4s0.4,0.2,0.4,0.4v7.9
						C17.7,52.7,17.5,52.9,17.3,52.9"/>
					<path id="패스_73" class="st3" d="M19.8,54.1c-0.2,0-0.4-0.2-0.4-0.4v-7.9c0-0.2,0.2-0.4,0.4-0.4s0.4,0.2,0.4,0.4v7.9
						C20.2,54,20,54.1,19.8,54.1"/>
					<path id="패스_74" class="st3" d="M22.3,55.6c-0.2,0-0.4-0.2-0.4-0.4v-7.9c0-0.2,0.2-0.4,0.4-0.4s0.4,0.2,0.4,0.4v7.9
						C22.7,55.4,22.5,55.6,22.3,55.6"/>
					<path id="패스_75" class="st3" d="M24.9,56.9c-0.2,0-0.4-0.2-0.4-0.4v-7.9c0-0.2,0.2-0.4,0.4-0.4s0.4,0.2,0.4,0.4v7.9
						C25.2,56.7,25.1,56.9,24.9,56.9"/>
					<path id="패스_76" class="st3" d="M27.4,58.1c-0.2,0-0.4-0.2-0.4-0.4v-7.9c0-0.2,0.2-0.4,0.4-0.4s0.4,0.2,0.4,0.4v7.9
						C27.8,58,27.6,58.1,27.4,58.1"/>
					<path id="패스_77" class="st3" d="M29.9,59.4c-0.2,0-0.4-0.2-0.4-0.4v-7.9c0-0.2,0.2-0.4,0.4-0.4s0.4,0.2,0.4,0.4v7.9
						C30.3,59.3,30.1,59.4,29.9,59.4"/>
					<path id="패스_78" class="st3" d="M32.4,60.7c-0.2,0-0.4-0.2-0.4-0.4v-7.9c0-0.2,0.2-0.4,0.4-0.4s0.4,0.2,0.4,0.4v7.9
						C32.8,60.6,32.6,60.7,32.4,60.7"/>
					<path id="패스_79" class="st3" d="M57.7,50.1c-0.2,0-0.4-0.2-0.4-0.4v-7.9c0-0.2,0.2-0.4,0.4-0.4s0.4,0.2,0.4,0.4l0,0v7.9
						C58.1,50,57.9,50.1,57.7,50.1"/>
					<path id="패스_80" class="st3" d="M55.2,51.4c-0.2,0-0.4-0.2-0.4-0.4v-7.9c0-0.2,0.2-0.4,0.4-0.4s0.4,0.2,0.4,0.4V51
						C55.5,51.3,55.4,51.4,55.2,51.4"/>
					<path id="패스_81" class="st3" d="M52.6,52.9c-0.2,0-0.4-0.2-0.4-0.4v-7.9c0-0.2,0.2-0.4,0.4-0.4s0.4,0.2,0.4,0.4v7.9
						C53,52.7,52.8,52.9,52.6,52.9"/>
					<path id="패스_82" class="st3" d="M50.1,54.1c-0.2,0-0.4-0.2-0.4-0.4v-7.9c0-0.2,0.2-0.4,0.4-0.4s0.4,0.2,0.4,0.4v7.9
						C50.5,54,50.3,54.1,50.1,54.1"/>
					<path id="패스_83" class="st3" d="M47.6,55.6c-0.2,0-0.4-0.2-0.4-0.4v-7.9c0-0.2,0.2-0.4,0.4-0.4S48,47,48,47.3v7.9
						C48,55.4,47.8,55.6,47.6,55.6"/>
					<path id="패스_84" class="st3" d="M45.1,56.9c-0.2,0-0.4-0.2-0.4-0.4v-7.9c0-0.2,0.2-0.4,0.4-0.4s0.4,0.2,0.4,0.4v7.9
						C45.4,56.7,45.3,56.9,45.1,56.9"/>
					<path id="패스_85" class="st3" d="M42.5,58.1c-0.2,0-0.4-0.2-0.4-0.4v-7.9c0-0.2,0.2-0.4,0.4-0.4s0.4,0.2,0.4,0.4v7.9
						C42.9,58,42.7,58.1,42.5,58.1"/>
					<path id="패스_86" class="st3" d="M40,59.4c-0.2,0-0.4-0.2-0.4-0.4v-7.9c0-0.2,0.2-0.4,0.4-0.4s0.4,0.2,0.4,0.4v7.9
						C40.4,59.3,40.2,59.4,40,59.4"/>
					<path id="패스_87" class="st3" d="M37.5,60.7c-0.2,0-0.4-0.2-0.4-0.4v-7.9c0-0.2,0.2-0.4,0.4-0.4s0.4,0.2,0.4,0.4v7.9
						C37.9,60.6,37.7,60.7,37.5,60.7"/>
					<path id="패스_88" class="st3" d="M35,62c-0.2,0-0.4-0.2-0.4-0.4v-7.9c0-0.2,0.2-0.4,0.4-0.4s0.4,0.2,0.4,0.4v7.9
						C35.3,61.9,35.2,62,35,62"/>
					<path id="패스_89" class="st3" d="M0.4,11.1C0.2,11.1,0,11,0,10.8c0-0.1,0-0.2,0.1-0.3l0.4-0.4C0.6,10,0.8,10,1,10.2
						s0.1,0.4,0,0.5L0.6,11C0.6,11.1,0.5,11.1,0.4,11.1"/>
					<path id="패스_90" class="st3" d="M1.9,9.6c-0.2,0-0.4-0.2-0.4-0.4c0-0.1,0-0.2,0.1-0.3L2,8.6c0.1-0.1,0.4-0.1,0.5,0
						s0.1,0.4,0,0.5L2.2,9.5C2.1,9.6,2,9.6,1.9,9.6"/>
					<path id="패스_91" class="st3" d="M0.7,9.6c-0.1,0-0.2,0-0.3-0.1L0.1,9.1C0,9,0,8.7,0.1,8.6c0.1-0.1,0.4-0.1,0.5,0L1,9
						c0.1,0.1,0.1,0.4,0,0.5C0.9,9.6,0.8,9.6,0.7,9.6"/>
					<path id="패스_92" class="st3" d="M2.3,11.1c-0.1,0-0.2,0-0.3-0.1l-0.4-0.4c-0.1-0.1-0.1-0.4,0-0.5C1.8,10,2,10,2.2,10.2
						l0.4,0.4c0.1,0.1,0.1,0.4,0,0.5C2.5,11.1,2.4,11.1,2.3,11.1"/>
					<path id="패스_93" class="st3" d="M73,29.6c-0.2,0-0.4-0.2-0.4-0.4c0-0.1,0-0.2,0.1-0.3l0.4-0.4c0.1-0.2,0.4-0.2,0.5,0
						c0.2,0.1,0.2,0.4,0,0.5c0,0,0,0,0,0l-0.4,0.4C73.2,29.5,73.1,29.6,73,29.6"/>
					<path id="패스_94" class="st3" d="M74.5,28c-0.2,0-0.4-0.2-0.4-0.4c0-0.1,0-0.2,0.1-0.3l0.4-0.4c0.1-0.2,0.4-0.2,0.5,0
						c0.2,0.1,0.2,0.4,0,0.5c0,0,0,0,0,0l-0.4,0.4C74.7,28,74.6,28,74.5,28"/>
					<path id="패스_95" class="st3" d="M73.3,28c-0.1,0-0.2,0-0.3-0.1l-0.4-0.4c-0.1-0.2-0.1-0.4,0-0.5c0.1-0.1,0.4-0.1,0.5,0
						l0.4,0.4c0.1,0.1,0.1,0.4,0,0.5C73.5,28,73.4,28,73.3,28"/>
					<path id="패스_96" class="st3" d="M74.9,29.6c-0.1,0-0.2,0-0.3-0.1l-0.4-0.4c-0.2-0.1-0.2-0.4,0-0.5c0.1-0.2,0.4-0.2,0.5,0
						c0,0,0,0,0,0l0.4,0.4c0.1,0.1,0.1,0.4,0,0.5C75.1,29.5,75,29.6,74.9,29.6"/>
					<path id="패스_97" class="st3" d="M73.7,44.4c-0.2,0-0.4-0.2-0.4-0.4c0-0.1,0-0.2,0.1-0.3l0.4-0.4c0.1-0.2,0.4-0.2,0.5,0
						c0.2,0.1,0.2,0.4,0,0.5c0,0,0,0,0,0L74,44.3C73.9,44.4,73.8,44.4,73.7,44.4"/>
					<path id="패스_98" class="st3" d="M75.3,42.9c-0.2,0-0.4-0.2-0.4-0.4c0-0.1,0-0.2,0.1-0.3l0.4-0.4c0.1-0.1,0.4-0.1,0.5,0
						s0.1,0.4,0,0.5l-0.4,0.4C75.5,42.8,75.4,42.9,75.3,42.9"/>
					<path id="패스_99" class="st3" d="M74.1,42.9c-0.1,0-0.2,0-0.3-0.1l-0.4-0.4c-0.1-0.1-0.1-0.4,0-0.5c0.1-0.1,0.4-0.1,0.5,0
						l0.4,0.4c0.1,0.1,0.1,0.4,0,0.5C74.3,42.8,74.2,42.9,74.1,42.9"/>
					<path id="패스_100" class="st3" d="M75.6,44.4c-0.1,0-0.2,0-0.3-0.1L75,44c-0.1-0.2-0.1-0.4,0-0.5c0.1-0.1,0.4-0.1,0.5,0
						l0.4,0.4c0.1,0.1,0.1,0.4,0,0.5C75.8,44.4,75.7,44.4,75.6,44.4"/>
					<path id="패스_101" class="st3" d="M69.8,37.1c-0.2,0-0.4-0.2-0.4-0.4c0-0.1,0-0.2,0.1-0.3l0.4-0.4c0.1-0.2,0.4-0.2,0.5,0
						c0.2,0.1,0.2,0.4,0,0.5c0,0,0,0,0,0l-0.4,0.4C70,37,69.9,37.1,69.8,37.1"/>
					<path id="패스_102" class="st3" d="M71.4,35.5c-0.2,0-0.4-0.2-0.4-0.4c0-0.1,0-0.2,0.1-0.3l0.4-0.4c0.1-0.2,0.4-0.2,0.5,0
						c0.2,0.1,0.2,0.4,0,0.5c0,0,0,0,0,0l-0.4,0.4C71.6,35.5,71.5,35.5,71.4,35.5"/>
					<path id="패스_103" class="st3" d="M70.2,35.5c-0.1,0-0.2,0-0.3-0.1L69.6,35c-0.1-0.2-0.1-0.4,0-0.5c0.1-0.1,0.4-0.1,0.5,0
						l0.4,0.4c0.1,0.1,0.1,0.4,0,0.5C70.4,35.5,70.3,35.5,70.2,35.5"/>
					<path id="패스_104" class="st3" d="M71.7,37.1c-0.1,0-0.2,0-0.3-0.1l-0.4-0.4c-0.1-0.2-0.1-0.4,0-0.5c0.1-0.1,0.4-0.1,0.5,0
						l0.4,0.4c0.1,0.1,0.1,0.4,0,0.5C71.9,37,71.8,37.1,71.7,37.1"/>
					<path id="패스_105" class="st3" d="M15.6,21.2h3.3l3.4,6.5l1.3,3h0.1c-0.2-1.7-0.4-3.4-0.4-5.1v-4.5h3.1v13.7h-3.3l-3.4-6.6
						l-1.3-3h-0.1c0.1,1.5,0.4,3.4,0.4,5.1v4.5h-3.1V21.2z"/>
					<path id="패스_106" class="st3" d="M29.6,21.2h8.7V24h-5.4v2.5h4.6v2.8h-4.6v2.9h5.6v2.8h-8.9V21.2z"/>
					<path id="패스_107" class="st3" d="M39.8,21.2h3.4l0.9,6.2l0.6,4.3h0.1c0.3-1.5,0.5-2.9,0.8-4.3l1.4-6.2h2.8l1.4,6.2
						c0.3,1.4,0.5,2.9,0.8,4.3h0.1c0.2-1.5,0.3-2.9,0.5-4.3l0.9-6.2h3.1L54,34.9h-4.1l-1.2-6c-0.2-1-0.4-2.2-0.5-3.2H48
						c-0.2,1-0.3,2.1-0.5,3.2l-1.2,6h-4.1L39.8,21.2z"/>
				</g>
			</g>
		</g>
	</g>
</g>
</svg>
