<?xml version="1.0" encoding="utf-8"?>
<!-- Generator: Adobe Illustrator 26.5.0, SVG Export Plug-In . SVG Version: 6.00 Build 0)  -->
<svg version="1.1" id="레이어_1" xmlns="http://www.w3.org/2000/svg" xmlns:xlink="http://www.w3.org/1999/xlink" x="0px"
	 y="0px" viewBox="0 0 110 110" style="enable-background:new 0 0 110 110;" xml:space="preserve">
<style type="text/css">
	.st0{fill:#E9F8FF;}
	.st1{clip-path:url(#SVGID_00000174564974880609616040000018076183769731679934_);}
	.st2{fill:#EAF9FB;}
	.st3{fill:#2C4E5F;}
	.st4{fill:#FFFFFF;}
	.st5{fill:#C4E8EE;}
	.st6{fill:#6DD9E9;}
</style>
<g id="icon06" transform="translate(-1055 -534)">
	<circle id="타원_5" class="st0" cx="1110" cy="589" r="55"/>
	<g id="그룹_20" transform="translate(1076.097 562)">
		<g>
			<defs>
				<rect id="SVGID_1_" x="0" y="0" width="66.7" height="56.7"/>
			</defs>
			<clipPath id="SVGID_00000046326020841801272320000000947575996131631037_">
				<use xlink:href="#SVGID_1_"  style="overflow:visible;"/>
			</clipPath>
			<g id="그룹_19" style="clip-path:url(#SVGID_00000046326020841801272320000000947575996131631037_);">
				<path id="패스_108" class="st2" d="M39.1,49H24.4l-1,5.5c-0.2,0.8,0.2,1.6,1,1.9c0.1,0,0.2,0.1,0.3,0.1h14
					c0.8-0.1,1.4-0.8,1.4-1.6c0-0.1,0-0.2-0.1-0.3L39.1,49z"/>
				<path id="패스_109" class="st3" d="M38.7,56.7h-14c-0.5,0-1-0.2-1.3-0.7c-0.4-0.5-0.5-1.1-0.3-1.7l1-5.5
					c0-0.2,0.2-0.3,0.3-0.3H39c0.2,0,0.3,0.1,0.3,0.3l1,5.5c0.1,0.6,0,1.2-0.3,1.6C39.7,56.5,39.2,56.7,38.7,56.7 M24.7,49.3
					l-0.9,5.2c-0.1,0.4,0,0.8,0.2,1.1c0.2,0.2,0.5,0.4,0.8,0.4h14c0.3,0,0.6-0.2,0.8-0.4c0.2-0.3,0.3-0.7,0.2-1.1l-0.9-5.2
					L24.7,49.3z"/>
				<path id="패스_110" class="st4" d="M61.6,49.6H1.8c-0.8,0-1.5-0.7-1.5-1.5V9.5C0.3,8.7,1,8,1.8,8h59.8c0.8,0,1.5,0.7,1.5,1.5
					v38.5C63.1,48.9,62.5,49.6,61.6,49.6"/>
				<path id="패스_111" class="st3" d="M61.6,49.9H1.8c-1,0-1.8-0.8-1.8-1.8V9.5c0-1,0.8-1.8,1.8-1.8h59.8c1,0,1.8,0.8,1.8,1.8
					v38.5C63.5,49.1,62.7,49.9,61.6,49.9 M1.8,8.4c-0.6,0-1.2,0.5-1.2,1.2v38.5c0,0.6,0.5,1.2,1.2,1.2h59.8c0.6,0,1.2-0.5,1.2-1.2
					V9.5c0-0.6-0.5-1.2-1.2-1.2L1.8,8.4z"/>
				<path id="패스_112" class="st2" d="M43.4,56.4H20.1c-0.5,0-0.9-0.4-1-1v-0.7c0-0.5,0.4-0.9,1-1h23.2c0.5,0,0.9,0.4,1,1v0.7
					C44.3,55.9,43.9,56.4,43.4,56.4"/>
				<path id="패스_113" class="st3" d="M43.4,56.7H20.1c-0.7,0-1.3-0.6-1.3-1.3v-0.7c0-0.7,0.6-1.3,1.3-1.3h23.2
					c0.7,0,1.3,0.6,1.3,1.3v0.7C44.6,56.1,44.1,56.7,43.4,56.7 M20.1,54.1c-0.3,0-0.6,0.3-0.6,0.6v0.7c0,0.3,0.3,0.6,0.6,0.6h23.2
					c0.3,0,0.6-0.3,0.6-0.6v-0.7c0-0.3-0.3-0.6-0.6-0.6H20.1z"/>
				<path id="패스_114" class="st5" d="M63.1,43.6H0.3V9.5C0.3,8.7,1,8,1.8,8h59.8c0.8,0,1.5,0.7,1.5,1.5L63.1,43.6z"/>
				<path id="패스_115" class="st3" d="M63.1,44H0.3C0.1,44,0,43.8,0,43.6c0,0,0,0,0,0V9.5c0-1,0.8-1.8,1.8-1.8h59.8
					c1,0,1.8,0.8,1.8,1.8v34.1C63.5,43.8,63.3,44,63.1,44C63.1,44,63.1,44,63.1,44 M0.7,43.3h62.1V9.5c0-0.6-0.5-1.2-1.2-1.2H1.8
					c-0.6,0-1.2,0.5-1.2,1.2V43.3z"/>
				<path id="패스_116" class="st5" d="M66.4,3.6c0-1.8-1.5-3.3-3.3-3.3H9.7c-1.8,0-3.3,1.5-3.3,3.3V7h60V3.6z"/>
				<path id="패스_117" class="st3" d="M66.4,7.3h-60C6.2,7.3,6,7.1,6,7v0V3.6C6,1.6,7.7,0,9.7,0h53.4c2,0,3.6,1.6,3.6,3.6V7
					C66.7,7.1,66.6,7.3,66.4,7.3C66.4,7.3,66.4,7.3,66.4,7.3 M6.7,6.6H66v-3c0-1.6-1.3-3-3-3H9.7c-1.6,0-3,1.3-3,3V6.6z"/>
				<path id="패스_118" class="st4" d="M6.4,7v28.2c0,1.8,1.5,3.3,3.3,3.3c0,0,0,0,0,0h53.4c1.8,0,3.3-1.5,3.3-3.3c0,0,0,0,0,0V7
					H6.4z"/>
				<path id="패스_119" class="st3" d="M63.1,38.8H9.7c-2,0-3.6-1.6-3.6-3.6V7c0-0.2,0.1-0.3,0.3-0.3h60c0.2,0,0.3,0.1,0.3,0.3
					c0,0,0,0,0,0v28.2C66.7,37.2,65.1,38.8,63.1,38.8 M6.7,7.3v27.9c0,1.6,1.3,3,3,3h53.4c1.6,0,3-1.3,3-3V7.3L6.7,7.3z"/>
				<path id="패스_120" class="st4" d="M11.7,3.8c0,0.7-0.5,1.2-1.2,1.2S9.2,4.4,9.2,3.8c0-0.7,0.5-1.2,1.2-1.2c0,0,0,0,0,0
					C11.1,2.6,11.7,3.1,11.7,3.8"/>
				<path id="패스_121" class="st3" d="M10.5,5.3c-0.8,0-1.5-0.7-1.5-1.5c0-0.8,0.7-1.5,1.5-1.5c0.8,0,1.5,0.7,1.5,1.5v0
					C12,4.6,11.3,5.3,10.5,5.3 M10.5,2.9c-0.5,0-0.9,0.4-0.9,0.9c0,0.5,0.4,0.9,0.9,0.9c0.5,0,0.9-0.4,0.9-0.9l0,0
					C11.3,3.3,10.9,2.9,10.5,2.9"/>
				<path id="패스_122" class="st4" d="M15.7,3.8c0,0.7-0.5,1.2-1.2,1.2c-0.7,0-1.2-0.5-1.2-1.2c0-0.7,0.5-1.2,1.2-1.2
					C15.1,2.6,15.7,3.1,15.7,3.8C15.7,3.8,15.7,3.8,15.7,3.8"/>
				<path id="패스_123" class="st3" d="M14.5,5.3c-0.8,0-1.5-0.7-1.5-1.5s0.7-1.5,1.5-1.5c0.8,0,1.5,0.7,1.5,1.5
					C16,4.6,15.3,5.3,14.5,5.3 M14.5,2.9c-0.5,0-0.9,0.4-0.9,0.9s0.4,0.9,0.9,0.9c0.5,0,0.9-0.4,0.9-0.9l0,0
					C15.3,3.3,15,2.9,14.5,2.9"/>
				<path id="패스_124" class="st4" d="M19.7,3.8c0,0.7-0.5,1.2-1.2,1.2c-0.7,0-1.2-0.5-1.2-1.2c0-0.7,0.5-1.2,1.2-1.2
					C19.2,2.6,19.7,3.1,19.7,3.8C19.7,3.8,19.7,3.8,19.7,3.8"/>
				<path id="패스_125" class="st3" d="M18.5,5.3c-0.8,0-1.5-0.7-1.5-1.5s0.7-1.5,1.5-1.5c0.8,0,1.5,0.7,1.5,1.5
					C20,4.6,19.3,5.3,18.5,5.3 M18.5,2.9c-0.5,0-0.9,0.4-0.9,0.9s0.4,0.9,0.9,0.9c0.5,0,0.9-0.4,0.9-0.9l0,0
					C19.4,3.3,19,2.9,18.5,2.9"/>
				<rect id="사각형_16" x="11.7" y="10.5" class="st6" width="12.9" height="1.4"/>
				<path id="패스_126" class="st3" d="M24.6,12.2H11.7c-0.2,0-0.3-0.1-0.3-0.3l0,0v-1.4c0-0.2,0.1-0.3,0.3-0.3c0,0,0,0,0,0h12.9
					c0.2,0,0.3,0.1,0.3,0.3c0,0,0,0,0,0v1.4C24.9,12.1,24.8,12.2,24.6,12.2C24.6,12.2,24.6,12.2,24.6,12.2 M12,11.6h12.3v-0.7H12
					L12,11.6z"/>
				<rect id="사각형_17" x="42.2" y="10.5" class="st6" width="16.2" height="1.4"/>
				<path id="패스_127" class="st3" d="M58.4,12.2H42.2c-0.2,0-0.3-0.1-0.3-0.3l0,0v-1.4c0-0.2,0.1-0.3,0.3-0.3c0,0,0,0,0,0h16.2
					c0.2,0,0.3,0.1,0.3,0.3c0,0,0,0,0,0v1.4C58.7,12.1,58.6,12.2,58.4,12.2C58.4,12.2,58.4,12.2,58.4,12.2 M42.5,11.6h15.6v-0.7
					H42.5V11.6z"/>
				<rect id="사각형_18" x="11.7" y="13.7" class="st6" width="34.2" height="1.4"/>
				<path id="패스_128" class="st3" d="M45.8,15.4H11.7c-0.2,0-0.3-0.1-0.3-0.3c0,0,0,0,0,0v-1.4c0-0.2,0.1-0.3,0.3-0.3l0,0h34.2
					c0.2,0,0.3,0.1,0.3,0.3c0,0,0,0,0,0v1.4C46.1,15.2,46,15.4,45.8,15.4C45.8,15.4,45.8,15.4,45.8,15.4 M12,14.7h33.5V14H12V14.7z"
					/>
				<rect id="사각형_19" x="11.7" y="26.2" class="st6" width="38.5" height="1.4"/>
				<path id="패스_129" class="st3" d="M50.1,28H11.7c-0.2,0-0.3-0.1-0.3-0.3c0,0,0,0,0,0v-1.4c0-0.2,0.1-0.3,0.3-0.3l0,0h38.5
					c0.2,0,0.3,0.1,0.3,0.3c0,0,0,0,0,0v1.4C50.5,27.8,50.3,28,50.1,28C50.1,28,50.1,28,50.1,28 M12,27.3h37.8v-0.7H12L12,27.3z"/>
				<rect id="사각형_20" x="11.7" y="32.5" class="st6" width="38.5" height="1.4"/>
				<path id="패스_130" class="st3" d="M50.1,34.2H11.7c-0.2,0-0.3-0.1-0.3-0.3c0,0,0,0,0,0v-1.4c0-0.2,0.1-0.3,0.3-0.3l0,0h38.5
					c0.2,0,0.3,0.1,0.3,0.3c0,0,0,0,0,0v1.4C50.5,34.1,50.3,34.2,50.1,34.2C50.1,34.2,50.1,34.2,50.1,34.2 M12,33.6h37.8v-0.7H12
					V33.6z"/>
				<rect id="사각형_21" x="26.9" y="10.5" class="st6" width="12.9" height="1.4"/>
				<path id="패스_131" class="st3" d="M39.8,12.2H26.9c-0.2,0-0.3-0.1-0.3-0.3l0,0v-1.4c0-0.2,0.1-0.3,0.3-0.3c0,0,0,0,0,0h12.9
					c0.2,0,0.3,0.1,0.3,0.3c0,0,0,0,0,0v1.4C40.2,12.1,40,12.2,39.8,12.2C39.8,12.2,39.8,12.2,39.8,12.2 M27.2,11.6h12.3v-0.7H27.2
					L27.2,11.6z"/>
				<rect id="사각형_22" x="11.7" y="23.1" class="st6" width="12.9" height="1.4"/>
				<path id="패스_132" class="st3" d="M24.6,24.8H11.7c-0.2,0-0.3-0.1-0.3-0.3l0,0v-1.4c0-0.2,0.1-0.3,0.3-0.3c0,0,0,0,0,0h12.9
					c0.2,0,0.3,0.1,0.3,0.3c0,0,0,0,0,0v1.4C24.9,24.7,24.8,24.8,24.6,24.8C24.6,24.8,24.6,24.8,24.6,24.8 M12,24.2h12.3v-0.7H12
					L12,24.2z"/>
				<rect id="사각형_23" x="42.2" y="23.1" class="st6" width="16.2" height="1.4"/>
				<path id="패스_133" class="st3" d="M58.4,24.8H42.2c-0.2,0-0.3-0.1-0.3-0.3l0,0v-1.4c0-0.2,0.1-0.3,0.3-0.3c0,0,0,0,0,0h16.2
					c0.2,0,0.3,0.1,0.3,0.3c0,0,0,0,0,0v1.4C58.7,24.7,58.6,24.8,58.4,24.8C58.4,24.8,58.4,24.8,58.4,24.8 M42.5,24.2h15.6v-0.7
					H42.5V24.2z"/>
				<rect id="사각형_24" x="26.9" y="23.1" class="st6" width="12.9" height="1.4"/>
				<path id="패스_134" class="st3" d="M39.8,24.8H26.9c-0.2,0-0.3-0.1-0.3-0.3l0,0v-1.4c0-0.2,0.1-0.3,0.3-0.3c0,0,0,0,0,0h12.9
					c0.2,0,0.3,0.1,0.3,0.3c0,0,0,0,0,0v1.4C40.2,24.7,40,24.8,39.8,24.8C39.8,24.8,39.8,24.8,39.8,24.8 M27.2,24.2h12.3v-0.7H27.2
					L27.2,24.2z"/>
				<rect id="사각형_25" x="11.7" y="29.4" class="st6" width="5.3" height="1.4"/>
				<path id="패스_135" class="st3" d="M17,31.1h-5.3c-0.2,0-0.3-0.1-0.3-0.3c0,0,0,0,0,0v-1.4c0-0.2,0.1-0.3,0.3-0.3c0,0,0,0,0,0
					H17c0.2,0,0.3,0.1,0.3,0.3c0,0,0,0,0,0v1.4C17.3,30.9,17.1,31.1,17,31.1C17,31.1,17,31.1,17,31.1 M12,30.4h4.6v-0.7H12L12,30.4z
					"/>
				<rect id="사각형_26" x="19.3" y="29.4" class="st6" width="20.6" height="1.4"/>
				<path id="패스_136" class="st3" d="M39.8,31.1H19.3c-0.2,0-0.3-0.1-0.3-0.3c0,0,0,0,0,0v-1.4c0-0.2,0.1-0.3,0.3-0.3
					c0,0,0,0,0,0h20.6c0.2,0,0.3,0.1,0.3,0.3c0,0,0,0,0,0v1.4C40.2,30.9,40,31.1,39.8,31.1C39.8,31.1,39.8,31.1,39.8,31.1
					 M19.6,30.4h19.9v-0.7H19.6V30.4z"/>
				<rect id="사각형_27" x="11.7" y="19.9" class="st6" width="12.9" height="1.4"/>
				<path id="패스_137" class="st3" d="M24.6,21.7H11.7c-0.2,0-0.3-0.1-0.3-0.3c0,0,0,0,0,0v-1.4c0-0.2,0.1-0.3,0.3-0.3
					c0,0,0,0,0,0h12.9c0.2,0,0.3,0.1,0.3,0.3c0,0,0,0,0,0v1.4C24.9,21.5,24.8,21.7,24.6,21.7C24.6,21.7,24.6,21.7,24.6,21.7 M12,21
					h12.3v-0.7H12L12,21z"/>
				<rect id="사각형_28" x="26.9" y="19.9" class="st6" width="12.9" height="1.4"/>
				<path id="패스_138" class="st3" d="M39.8,21.7H26.9c-0.2,0-0.3-0.1-0.3-0.3c0,0,0,0,0,0v-1.4c0-0.2,0.1-0.3,0.3-0.3
					c0,0,0,0,0,0h12.9c0.2,0,0.3,0.1,0.3,0.3c0,0,0,0,0,0v1.4C40.2,21.5,40,21.7,39.8,21.7C39.8,21.7,39.8,21.7,39.8,21.7 M27.2,21
					h12.3v-0.7H27.2L27.2,21z"/>
				<rect id="사각형_29" x="11.7" y="16.8" class="st6" width="12.9" height="1.4"/>
				<path id="패스_139" class="st3" d="M24.6,18.5H11.7c-0.2,0-0.3-0.1-0.3-0.3c0,0,0,0,0,0v-1.4c0-0.2,0.1-0.3,0.3-0.3l0,0h12.9
					c0.2,0,0.3,0.1,0.3,0.3c0,0,0,0,0,0v1.4C24.9,18.4,24.8,18.5,24.6,18.5C24.6,18.5,24.6,18.5,24.6,18.5 M12,17.9h12.3v-0.7H12
					L12,17.9z"/>
				<rect id="사각형_30" x="26.9" y="16.8" class="st6" width="17.9" height="1.4"/>
				<path id="패스_140" class="st3" d="M44.8,18.5H26.9c-0.2,0-0.3-0.1-0.3-0.3c0,0,0,0,0,0v-1.4c0-0.2,0.1-0.3,0.3-0.3l0,0h17.9
					c0.2,0,0.3,0.1,0.3,0.3c0,0,0,0,0,0v1.4C45.1,18.4,45,18.5,44.8,18.5C44.8,18.5,44.8,18.5,44.8,18.5 M27.2,17.9h17.2v-0.7H27.2
					L27.2,17.9z"/>
			</g>
		</g>
	</g>
</g>
</svg>
