<?xml version="1.0" encoding="utf-8"?>
<!-- Generator: Adobe Illustrator 26.5.0, SVG Export Plug-In . SVG Version: 6.00 Build 0)  -->
<svg version="1.1" id="레이어_1" xmlns="http://www.w3.org/2000/svg" xmlns:xlink="http://www.w3.org/1999/xlink" x="0px"
	 y="0px" viewBox="0 0 110 110" style="enable-background:new 0 0 110 110;" xml:space="preserve">
<style type="text/css">
	.st0{fill:#E9F8FF;}
	.st1{clip-path:url(#SVGID_00000013158936669806693600000016221210849651971994_);}
	.st2{fill:#FFD973;}
	.st3{clip-path:url(#SVGID_00000016035318487288196040000010681568826199121056_);}
	.st4{fill:#79559C;}
	.st5{fill:#00D1EB;}
	.st6{fill:#FF8B94;}
	.st7{fill:#CFA1F5;}
	.st8{fill:#2C4E5F;}
	.st9{fill:#FFFFFF;}
	.st10{fill:#8051CA;}
	.st11{opacity:0.8;}
	.st12{clip-path:url(#SVGID_00000076592565913302458460000007612672629981636779_);}
</style>
<g id="icon07" transform="translate(-1204 -534)">
	<circle id="타원_8" class="st0" cx="1259" cy="589" r="55"/>
	<g id="그룹_31" transform="translate(1217 554)">
		<g>
			<defs>
				<rect id="SVGID_1_" y="0" width="84.3" height="75"/>
			</defs>
			<clipPath id="SVGID_00000133489619789189448780000003900982468490878081_">
				<use xlink:href="#SVGID_1_"  style="overflow:visible;"/>
			</clipPath>
			<g id="그룹_30" style="clip-path:url(#SVGID_00000133489619789189448780000003900982468490878081_);">
				
					<rect id="사각형_35" x="9.2" y="15.7" transform="matrix(0.7071 -0.7071 0.7071 0.7071 -9.1498 12.792)" class="st2" width="3.4" height="3.4"/>
				<g id="그룹_29">
					<g>
						<defs>
							<rect id="SVGID_00000120535326402862589650000009561376712148669570_" y="0" width="84.3" height="75"/>
						</defs>
						<clipPath id="SVGID_00000068650964906537885650000005368272699351524266_">
							<use xlink:href="#SVGID_00000120535326402862589650000009561376712148669570_"  style="overflow:visible;"/>
						</clipPath>
						<g id="그룹_28" style="clip-path:url(#SVGID_00000068650964906537885650000005368272699351524266_);">
							<path id="패스_162" class="st4" d="M10.9,20.3c-0.1,0-0.2,0-0.3-0.1l-2.4-2.4c-0.2-0.2-0.2-0.4,0-0.6l2.4-2.4
								c0.2-0.2,0.4-0.2,0.6,0l2.4,2.4c0.2,0.2,0.2,0.4,0,0.6l-2.4,2.4C11.1,20.2,11,20.3,10.9,20.3 M9.1,17.4l1.8,1.8l1.8-1.8
								l-1.8-1.8L9.1,17.4z"/>
							
								<rect id="사각형_36" x="64.8" y="45.4" transform="matrix(0.7068 -0.7074 0.7074 0.7068 -13.8168 60.8512)" class="st5" width="3.4" height="3.4"/>
							<path id="패스_163" class="st4" d="M66.5,50.1l-3-3l3-3l3,3L66.5,50.1z M64.7,47.1l1.8,1.8l1.8-1.8l-1.8-1.8L64.7,47.1z"/>
							<path id="패스_164" class="st6" d="M69.8,13.9h-1.3c-0.3,0-0.6-0.3-0.6-0.6c0-0.3,0.3-0.6,0.6-0.6h1.3
								c0.3,0,0.6,0.3,0.6,0.6C70.4,13.6,70.1,13.9,69.8,13.9C69.8,13.9,69.8,13.9,69.8,13.9"/>
							<path id="패스_165" class="st6" d="M73.6,13.9h-1.3c-0.3,0-0.6-0.3-0.6-0.6c0-0.3,0.3-0.6,0.6-0.6c0,0,0,0,0,0h1.3
								c0.3,0,0.6,0.3,0.6,0.6C74.1,13.6,73.9,13.9,73.6,13.9C73.6,13.9,73.6,13.9,73.6,13.9"/>
							<path id="패스_166" class="st6" d="M71,12.7c-0.3,0-0.6-0.3-0.6-0.6v0v-1.3c0-0.3,0.3-0.6,0.6-0.6c0.3,0,0.6,0.3,0.6,0.6
								v1.3C71.6,12.4,71.3,12.7,71,12.7L71,12.7"/>
							<path id="패스_167" class="st6" d="M71,16.4c-0.3,0-0.6-0.3-0.6-0.6v0v-1.3c0-0.3,0.3-0.6,0.6-0.6c0.3,0,0.6,0.3,0.6,0.6
								v1.3C71.6,16.2,71.3,16.4,71,16.4L71,16.4"/>
							<path id="패스_168" class="st5" d="M12.5,50.5h-1.3c-0.3,0-0.6-0.3-0.6-0.6s0.3-0.6,0.6-0.6h1.3c0.3,0,0.6,0.3,0.6,0.6
								S12.8,50.5,12.5,50.5"/>
							<path id="패스_169" class="st5" d="M16.2,50.5h-1.4c-0.3,0-0.6-0.3-0.6-0.6s0.3-0.6,0.6-0.6h1.4c0.3,0,0.6,0.3,0.6,0.6
								S16.6,50.5,16.2,50.5L16.2,50.5"/>
							<path id="패스_170" class="st5" d="M13.7,49.3c-0.3,0-0.6-0.3-0.6-0.6l0,0v-1.3c0-0.3,0.3-0.6,0.6-0.6s0.6,0.3,0.6,0.6v1.3
								C14.3,49,14,49.3,13.7,49.3L13.7,49.3"/>
							<path id="패스_171" class="st5" d="M13.7,53c-0.3,0-0.6-0.3-0.6-0.6l0,0v-1.3c0-0.3,0.3-0.6,0.6-0.6s0.6,0.3,0.6,0.6v1.3
								C14.3,52.8,14,53,13.7,53L13.7,53"/>
							<path id="패스_172" class="st7" d="M34.7,49.6v1.2c0,2.9,1.5,5.3,3.4,5.3H44c1.9,0,3.4-2.4,3.4-5.3v-1.2H34.7z"/>
							<path id="패스_173" class="st8" d="M44,56.7h-5.8c-2.2,0-4-2.6-4-5.9v-1.2c0-0.3,0.3-0.6,0.6-0.6l0,0h12.7
								c0.3,0,0.6,0.3,0.6,0.6l0,0v1.2C48,54.1,46.3,56.7,44,56.7 M35.3,50.2v0.7c0,2.6,1.3,4.7,2.8,4.7H44c1.5,0,2.8-2.2,2.8-4.7
								v-0.7H35.3z"/>
							<path id="패스_174" class="st2" d="M55.7,25.5c0-8-6.4-14.4-14.4-14.4s-14.4,6.4-14.4,14.4c0,3.8,1.5,7.4,4.1,10.1
								c1.1,2.7,2.1,5.4,3,8.2h14.4c0.3-1.7,1.6-4.5,2.5-6.9C53.9,33.9,55.7,29.8,55.7,25.5"/>
							<path id="패스_175" class="st8" d="M48.4,44.4H34c-0.3,0-0.5-0.2-0.6-0.4c0,0-1.2-4.2-2.9-8.1c-5.7-6-5.5-15.5,0.5-21.2
								s15.5-5.5,21.2,0.5c2.7,2.8,4.2,6.5,4.2,10.4c-0.1,4.4-1.8,8.6-5,11.7c-0.3,0.7-0.6,1.5-0.9,2.2c-0.6,1.4-1.1,2.9-1.5,4.4
								C48.9,44.1,48.7,44.4,48.4,44.4 M34.4,43.2h13.5c0.4-1.4,0.9-2.8,1.5-4.2c0.3-0.8,0.6-1.6,0.9-2.3c0-0.1,0.1-0.2,0.1-0.2
								c3-2.9,4.7-6.8,4.7-11c0-7.6-6.2-13.8-13.8-13.8c-7.6,0-13.8,6.2-13.8,13.8c0,3.6,1.4,7.1,3.9,9.7c0,0.1,0.1,0.1,0.1,0.2
								C32.9,38.6,34,42,34.4,43.2"/>
							<rect id="사각형_37" x="34" y="43.6" class="st7" width="14.3" height="6"/>
							<path id="패스_176" class="st8" d="M48.2,50.2H34c-0.3,0-0.6-0.3-0.6-0.6l0,0v-6c0-0.3,0.3-0.6,0.6-0.6l0,0h14.3
								c0.3,0,0.6,0.3,0.6,0.6l0,0v6C48.8,49.9,48.6,50.2,48.2,50.2L48.2,50.2 M34.5,49h13.1v-4.8H34.5V49z"/>
							<rect id="사각형_38" x="40.9" y="5.8" class="st8" width="0.9" height="1.2"/>
							<rect id="사각형_39" x="40.9" y="2.7" class="st8" width="0.9" height="1.5"/>
							<rect id="사각형_40" x="40.9" y="0" class="st8" width="0.9" height="1.2"/>
							
								<rect id="사각형_41" x="56.5" y="13.2" transform="matrix(0.7521 -0.6591 0.6591 0.7521 5.138 40.9897)" class="st8" width="1.2" height="0.9"/>
							
								<rect id="사각형_42" x="58.2" y="11.7" transform="matrix(0.7521 -0.6591 0.6591 0.7521 6.6033 41.7753)" class="st8" width="1.2" height="0.9"/>
							
								<rect id="사각형_43" x="60" y="10.1" transform="matrix(0.7521 -0.6591 0.6591 0.7521 8.0682 42.5602)" class="st8" width="1.2" height="0.9"/>
							<rect id="사각형_44" x="60" y="26.2" class="st8" width="1.2" height="0.9"/>
							<rect id="사각형_45" x="62.6" y="26.2" class="st8" width="1.5" height="0.9"/>
							<rect id="사각형_46" x="65.6" y="26.2" class="st8" width="1.2" height="0.9"/>
							
								<rect id="사각형_47" x="24.6" y="12.4" transform="matrix(0.6582 -0.7529 0.7529 0.6582 -1.1783 23.2696)" class="st8" width="0.9" height="1.2"/>
							
								<rect id="사각형_48" x="22.8" y="10.8" transform="matrix(0.658 -0.753 0.753 0.658 -0.6136 21.4047)" class="st8" width="0.9" height="1.2"/>
							
								<rect id="사각형_49" x="21" y="9.2" transform="matrix(0.6582 -0.7529 0.7529 0.6582 -5.279017e-02 19.5286)" class="st8" width="0.9" height="1.2"/>
							<rect id="사각형_50" x="20.3" y="26.2" class="st8" width="1.2" height="0.9"/>
							<rect id="사각형_51" x="17.7" y="26.2" class="st8" width="1.3" height="0.9"/>
							<rect id="사각형_52" x="15.2" y="26.2" class="st8" width="1.2" height="0.9"/>
							<path id="패스_177" class="st9" d="M41.1,69.7c0,0,0.5-7.7-7.3-8.6H4v8.8L41.1,69.7z"/>
							<path id="패스_178" class="st8" d="M4,70.5c-0.3,0-0.6-0.3-0.6-0.6c0,0,0,0,0,0v-8.8c0-0.3,0.3-0.6,0.6-0.6h0h29.8
								c8.3,1,7.9,9.1,7.9,9.2c0,0.3-0.3,0.5-0.6,0.5L4,70.5L4,70.5z M4.6,61.7v7.6l36-0.2c0.1-3.9-2.9-7.2-6.8-7.4L4.6,61.7z"/>
							<rect id="사각형_53" x="5.1" y="66.2" class="st8" width="27.8" height="0.6"/>
							<rect id="사각형_54" x="4.3" y="63.5" class="st8" width="18.8" height="0.6"/>
							<path id="패스_179" class="st10" d="M43.8,69.7c0,0-0.5-7.7,7.3-8.6h29.8v8.8L43.8,69.7z"/>
							<path id="패스_180" class="st8" d="M81.5,70.5l-38.3-0.2l0-0.5c0-0.1-0.4-8.2,7.9-9.2h30.5L81.5,70.5z M44.3,69.1l36,0.2
								v-7.6H51.1C45.1,62.4,44.4,67.4,44.3,69.1"/>
							<path id="패스_181" class="st10" d="M81.8,69h1.8v5.4H2.9V69L81.8,69L81.8,69z"/>
							<path id="패스_182" class="st8" d="M84.3,75H2.3v-6.6h81.9V75z M3.5,73.9h79.6v-4.3H3.5V73.9z"/>
							<path id="패스_183" class="st9" d="M41.4,69.7c0,0-0.5-7.7,7.3-8.6h29.8v8.8L41.4,69.7z"/>
							<path id="패스_184" class="st8" d="M78.6,70.5L78.6,70.5l-37.2-0.2c-0.3,0-0.6-0.2-0.6-0.5c0-0.1-0.4-8.2,7.9-9.2h29.9
								c0.3,0,0.6,0.3,0.6,0.6l0,0v8.8C79.2,70.2,78.9,70.5,78.6,70.5L78.6,70.5 M42,69.1l36,0.2v-7.6H48.8
								C42.7,62.4,42.1,67.4,42,69.1"/>
							<path id="패스_185" class="st7" d="M79.5,69h1.8v5.4H0.6V69L79.5,69L79.5,69z"/>
							<path id="패스_186" class="st8" d="M81.9,75H0v-6.6h81.9V75z M1.2,73.9h79.6v-4.3H1.2V73.9z"/>
							<rect id="사각형_55" x="49.7" y="66.2" class="st8" width="27.8" height="0.6"/>
							<rect id="사각형_56" x="59.5" y="63.5" class="st8" width="18.8" height="0.6"/>
							<g id="그룹_27" transform="translate(30.089 14.191)" class="st11">
								<g id="그룹_26">
									<g>
										<defs>
											<rect id="SVGID_00000137093612020755153820000012263841307916284601_" x="0" y="0" width="12.4" height="15.6"/>
										</defs>
										<clipPath id="SVGID_00000150071360696348154980000003556606619025790347_">
											<use xlink:href="#SVGID_00000137093612020755153820000012263841307916284601_"  style="overflow:visible;"/>
										</clipPath>
										<g id="그룹_25" style="clip-path:url(#SVGID_00000150071360696348154980000003556606619025790347_);">
											<path id="패스_187" class="st9" d="M1.8,15.6c-0.5,0-0.9-0.3-1.1-0.8C-1.7,8.7,2.8,3.9,3,3.7C5.1,1.3,8.1,0,11.3,0
												c0.6,0,1.1,0.6,1.1,1.2c0,0,0,0,0,0c0,0.6-0.6,1.1-1.2,1.1c-2.5,0-4.8,1.1-6.5,2.9c-0.2,0.2-3.7,4-1.9,8.8
												c0.2,0.6-0.1,1.3-0.7,1.5c0,0,0,0,0,0C2,15.6,1.9,15.6,1.8,15.6"/>
										</g>
									</g>
								</g>
							</g>
							<path id="패스_188" class="st8" d="M42.6,33.1c0,0.3-0.1,0.6-0.3,0.8c-0.2,0.2-0.5,0.3-0.8,0.3c-0.3,0-0.6-0.1-0.8-0.3
								c-0.4-0.4-0.4-1.1,0-1.5c0.2-0.2,0.5-0.3,0.8-0.3c0.3,0,0.6,0.1,0.8,0.3C42.5,32.5,42.6,32.8,42.6,33.1 M42.6,20.9v4.4
								l-0.3,5.4h-1.4l-0.3-5.4v-4.4L42.6,20.9z"/>
						</g>
					</g>
				</g>
			</g>
		</g>
	</g>
</g>
</svg>
