<?xml version="1.0" encoding="utf-8"?>
<!-- Generator: Adobe Illustrator 26.5.0, SVG Export Plug-In . SVG Version: 6.00 Build 0)  -->
<svg version="1.1" id="레이어_1" xmlns="http://www.w3.org/2000/svg" xmlns:xlink="http://www.w3.org/1999/xlink" x="0px"
	 y="0px" viewBox="0 0 110 110" style="enable-background:new 0 0 110 110;" xml:space="preserve">
<style type="text/css">
	.st0{fill:#E9F8FF;}
	.st1{fill:#FFFFFF;}
	.st2{clip-path:url(#SVGID_00000065074005514880450090000011120178745412930734_);}
	.st3{fill:#2C4E5F;}
	.st4{fill:none;}
	.st5{fill:#6DD9E9;}
</style>
<g id="icon08" transform="translate(-1352 -534)">
	<circle id="타원_6" class="st0" cx="1407" cy="589" r="55"/>
	<g id="그룹_23" transform="translate(1379 560)">
		<path id="패스_141" class="st1" d="M46,4.3h-8l8,9.2V4.3z"/>
		<g id="그룹_22">
			<g>
				<defs>
					<rect id="SVGID_1_" y="0" width="64.8" height="63.4"/>
				</defs>
				<clipPath id="SVGID_00000177464741689836498510000014227505195910501048_">
					<use xlink:href="#SVGID_1_"  style="overflow:visible;"/>
				</clipPath>
				<g id="그룹_21" style="clip-path:url(#SVGID_00000177464741689836498510000014227505195910501048_);">
					<path id="패스_142" class="st3" d="M46,13.9c-0.1,0-0.2,0-0.3-0.1l-8-9.2c-0.1-0.1-0.1-0.4,0-0.5C37.8,4,37.9,3.9,38,3.9h8
						c0.2,0,0.4,0.2,0.4,0.4l0,0v9.2C46.3,13.7,46.2,13.9,46,13.9L46,13.9 M38.8,4.7l6.9,7.9V4.7L38.8,4.7z"/>
					<path id="패스_143" class="st1" d="M38,4.3H0.4V63H46V13.5L38,4.3z"/>
					<path id="패스_144" class="st3" d="M46,63.4H0.4C0.2,63.4,0,63.2,0,63c0,0,0,0,0,0V4.3c0-0.2,0.2-0.4,0.4-0.4c0,0,0,0,0,0H38
						c0.1,0,0.2,0,0.3,0.1l8,9.2c0.1,0.1,0.1,0.1,0.1,0.2V63C46.3,63.2,46.2,63.4,46,63.4L46,63.4 M0.7,62.7h44.9v-49l-7.8-9H0.7
						V62.7z"/>
					<path id="패스_145" class="st1" d="M49.6,0.4h-8l8,9.2L49.6,0.4z"/>
					<path id="패스_146" class="st3" d="M49.6,9.9c-0.1,0-0.2,0-0.3-0.1l-8-9.2c-0.1-0.1-0.1-0.4,0-0.5C41.4,0,41.5,0,41.6,0h8
						C49.8,0,50,0.2,50,0.4c0,0,0,0,0,0v9.2C50,9.8,49.8,9.9,49.6,9.9L49.6,9.9 M42.4,0.7l6.9,7.9V0.7L42.4,0.7z"/>
					<path id="패스_147" class="st1" d="M41.6,0.4H4v58.7h45.6V9.6L41.6,0.4z"/>
					<path id="패스_148" class="st3" d="M49.6,59.5H4c-0.2,0-0.4-0.2-0.4-0.4l0,0V0.4C3.6,0.2,3.8,0,4,0c0,0,0,0,0,0h37.6
						c0.1,0,0.2,0,0.3,0.1l8,9.2C50,9.4,50,9.5,50,9.6v49.5C50,59.3,49.8,59.5,49.6,59.5L49.6,59.5 M4.4,58.7h44.9v-49l-7.8-9H4.4
						V58.7z"/>
					<line id="선_4" class="st4" x1="12.6" y1="23.4" x2="41.6" y2="23.4"/>
					<path id="패스_149" class="st3" d="M41.6,23.7h-29c-0.2,0-0.4-0.2-0.4-0.4c0-0.2,0.2-0.4,0.4-0.4h29c0.2,0,0.4,0.2,0.4,0.4
						C42,23.6,41.8,23.7,41.6,23.7L41.6,23.7"/>
					<line id="선_5" class="st4" x1="12.6" y1="30.1" x2="41.6" y2="30.1"/>
					<path id="패스_150" class="st3" d="M41.6,30.4h-29c-0.2,0-0.4-0.2-0.4-0.4c0-0.2,0.2-0.4,0.4-0.4h29c0.2,0,0.4,0.2,0.4,0.4
						C42,30.3,41.8,30.4,41.6,30.4L41.6,30.4"/>
					<line id="선_6" class="st4" x1="12.6" y1="36.8" x2="41.6" y2="36.8"/>
					<path id="패스_151" class="st3" d="M41.6,37.1h-29c-0.2,0-0.4-0.2-0.4-0.4c0-0.2,0.2-0.4,0.4-0.4h29c0.2,0,0.4,0.2,0.4,0.4
						C42,37,41.8,37.1,41.6,37.1L41.6,37.1"/>
					<line id="선_7" class="st4" x1="12.6" y1="43.4" x2="41.6" y2="43.4"/>
					<path id="패스_152" class="st3" d="M41.6,43.8h-29c-0.2,0-0.4-0.2-0.4-0.4c0-0.2,0.2-0.4,0.4-0.4h29c0.2,0,0.4,0.2,0.4,0.4
						C42,43.6,41.8,43.8,41.6,43.8L41.6,43.8"/>
					<line id="선_8" class="st4" x1="12.6" y1="50.1" x2="35.1" y2="50.1"/>
					<path id="패스_153" class="st3" d="M35.1,50.5H12.6c-0.2,0-0.4-0.2-0.4-0.4c0-0.2,0.2-0.4,0.4-0.4h22.5
						c0.2,0,0.4,0.2,0.4,0.4C35.4,50.3,35.3,50.5,35.1,50.5"/>
					<line id="선_9" class="st4" x1="37.2" y1="50.1" x2="41.6" y2="50.1"/>
					<path id="패스_154" class="st3" d="M41.6,50.5h-4.4c-0.2,0-0.4-0.2-0.4-0.4c0-0.2,0.2-0.4,0.4-0.4l0,0h4.4
						c0.2,0,0.4,0.2,0.4,0.4C42,50.3,41.8,50.5,41.6,50.5"/>
					
						<rect id="사각형_32" x="41.3" y="35.4" transform="matrix(0.7071 -0.7071 0.7071 0.7071 -11.0686 48.6957)" class="st5" width="23.9" height="4.6"/>
					<path id="패스_155" class="st3" d="M46.4,48.2c-0.1,0-0.2,0-0.3-0.1l-3.2-3.2c-0.1-0.1-0.1-0.4,0-0.5c0,0,0,0,0,0l16.9-16.9
						c0.1-0.1,0.4-0.1,0.5,0l3.2,3.2c0.1,0.1,0.1,0.4,0,0.5L46.7,48C46.6,48.1,46.5,48.2,46.4,48.2 M43.7,44.6l2.7,2.7l16.4-16.4
						l-2.7-2.7L43.7,44.6z"/>
					<path id="패스_156" class="st1" d="M43.2,44.6L41,50l5.4-2.2L43.2,44.6z"/>
					<path id="패스_157" class="st3" d="M41,50.4c-0.2,0-0.4-0.2-0.4-0.4c0,0,0-0.1,0-0.1l2.2-5.4c0.1-0.2,0.3-0.3,0.5-0.2
						c0,0,0.1,0,0.1,0.1l3.2,3.2c0.1,0.1,0.1,0.4,0,0.5c0,0-0.1,0.1-0.1,0.1l-5.4,2.2C41,50.4,41,50.4,41,50.4 M43.3,45.2l-1.7,4.2
						l4.2-1.7L43.3,45.2z"/>
					
						<rect id="사각형_33" x="61.4" y="26.9" transform="matrix(0.7071 -0.7071 0.7071 0.7071 -1.8023 52.5215)" class="st1" width="2.3" height="3.2"/>
					<path id="패스_158" class="st3" d="M62.8,30.7c-0.1,0-0.2,0-0.3-0.1l-2.2-2.2c-0.1-0.1-0.1-0.4,0-0.5c0,0,0,0,0,0l1.6-1.6
						c0.1-0.1,0.4-0.1,0.5,0c0,0,0,0,0,0l2.2,2.2c0.1,0.1,0.1,0.4,0,0.5l-1.6,1.6C63,30.7,62.9,30.7,62.8,30.7 M61.1,28.1l1.7,1.7
						l1.1-1.1L62.2,27L61.1,28.1z"/>
					<path id="패스_159" class="st3" d="M56.3,40c-0.2,0-0.4-0.2-0.4-0.4c0-0.1,0-0.2,0.1-0.3l5.5-5.5c0.4-0.4,0.4-0.9,0-1.3
						c0,0,0,0,0,0c-0.1-0.1-0.1-0.4,0-0.5c0.1-0.1,0.4-0.1,0.5,0c0.6,0.6,0.6,1.7,0,2.3l-5.5,5.5C56.5,40,56.4,40,56.3,40"/>
					<path id="패스_160" class="st5" d="M29.3,11.3h-0.1c0.9-0.6,1.4-1.6,1.4-2.7V7.2c0-1.9-1.5-3.4-3.4-3.4
						c-1.9,0-3.4,1.5-3.4,3.4c0,0,0,0,0,0v1.4c0,1.1,0.5,2.1,1.4,2.7H25c-2.4,0-4.3,1.9-4.3,4.4v2.7h13v-2.7
						C33.7,13.2,31.7,11.3,29.3,11.3"/>
					<path id="패스_161" class="st3" d="M33.7,18.7h-13c-0.2,0-0.4-0.2-0.4-0.4l0,0v-2.7c0-2.3,1.7-4.3,4-4.7
						c-0.6-0.7-0.9-1.5-0.9-2.4V7.2c0-2.1,1.7-3.8,3.8-3.8s3.8,1.7,3.8,3.8c0,0,0,0,0,0v1.4c0,0.9-0.3,1.7-0.9,2.4
						c2.3,0.4,4,2.3,4,4.7v2.7C34,18.6,33.9,18.7,33.7,18.7L33.7,18.7 M21,18h12.3v-2.4c0-2.2-1.8-4-4-4h-0.1
						c-0.2,0-0.4-0.2-0.4-0.4c0-0.1,0.1-0.2,0.1-0.3c0.8-0.6,1.2-1.5,1.2-2.4V7.2c0-1.7-1.4-3-3-3c-1.7,0-3,1.4-3,3c0,0,0,0,0,0v1.4
						c0,1,0.5,1.9,1.2,2.4c0.2,0.1,0.2,0.3,0.1,0.5c-0.1,0.1-0.2,0.1-0.3,0.1H25c-2.2,0-4,1.8-4,4L21,18z"/>
				</g>
			</g>
		</g>
	</g>
</g>
</svg>
