<?xml version="1.0" encoding="utf-8"?>
<!-- Generator: Adobe Illustrator 26.5.0, SVG Export Plug-In . SVG Version: 6.00 Build 0)  -->
<svg version="1.1" id="레이어_1" xmlns="http://www.w3.org/2000/svg" xmlns:xlink="http://www.w3.org/1999/xlink" x="0px"
	 y="0px" viewBox="0 0 110 110" style="enable-background:new 0 0 110 110;" xml:space="preserve">
<style type="text/css">
	.st0{fill:#E9F8FF;}
	.st1{fill:#8051CA;}
	.st2{fill:#2C4E5F;}
	.st3{fill:#C4E8EE;}
	.st4{clip-path:url(#SVGID_00000183225866793145629830000008355913465070839456_);}
	.st5{fill:#FFD973;}
	.st6{fill:#79559C;}
	.st7{fill:#00D1EB;}
	.st8{fill:#FF8B94;}
	.st9{fill:#FFFFFF;}
	.st10{fill:#5DDAE2;}
</style>
<g id="icon03" transform="translate(-611 -534)">
	<circle id="타원_7" class="st0" cx="666" cy="589" r="55"/>
	<g id="그룹_34" transform="translate(619 561)">
		<rect id="사각형_60" x="13.7" y="2.4" class="st1" width="69.5" height="42.2"/>
		<path id="패스_189" class="st2" d="M83.7,45.2H13.2V1.9h70.5V45.2z M14.2,44.2h68.4V3H14.2V44.2z"/>
		<rect id="사각형_61" x="11.1" y="2.4" class="st3" width="69.5" height="42.2"/>
		<g id="그룹_33">
			<g>
				<defs>
					<rect id="SVGID_1_" y="0" width="94.7" height="61"/>
				</defs>
				<clipPath id="SVGID_00000058566717438854090230000000470588219159340420_">
					<use xlink:href="#SVGID_1_"  style="overflow:visible;"/>
				</clipPath>
				<g id="그룹_32" style="clip-path:url(#SVGID_00000058566717438854090230000000470588219159340420_);">
					<path id="패스_190" class="st2" d="M80.6,45.2H11.1c-0.3,0-0.5-0.2-0.5-0.5c0,0,0,0,0,0V2.4c0-0.3,0.2-0.5,0.5-0.5l0,0h69.5
						c0.3,0,0.5,0.2,0.5,0.5c0,0,0,0,0,0v42.2C81.1,45,80.9,45.2,80.6,45.2C80.6,45.2,80.6,45.2,80.6,45.2 M11.6,44.2h68.4V3H11.6
						V44.2z"/>
					
						<rect id="사각형_62" x="1" y="3.3" transform="matrix(0.7071 -0.7071 0.7071 0.7071 -2.6581 3.2074)" class="st5" width="3" height="3"/>
					<path id="패스_191" class="st6" d="M2.5,7.4c-0.1,0-0.2,0-0.3-0.1L0.1,5.1C0,4.9,0,4.7,0.1,4.5c0,0,0,0,0,0l2.1-2.2
						c0.2-0.2,0.4-0.2,0.6,0L5,4.5c0.1,0.2,0.1,0.4,0,0.6L2.8,7.2C2.7,7.3,2.6,7.4,2.5,7.4 M0.9,4.8l1.6,1.6l1.6-1.6L2.5,3.2
						L0.9,4.8z"/>
					
						<rect id="사각형_63" x="84.4" y="54.1" transform="matrix(0.7071 -0.7071 0.7071 0.7071 -14.1972 77.0484)" class="st7" width="3" height="3"/>
					<path id="패스_192" class="st6" d="M85.9,58.4l-2.7-2.7l2.7-2.7l2.7,2.7L85.9,58.4z M84.3,55.7l1.6,1.6l1.6-1.6l-1.6-1.6
						L84.3,55.7z"/>
					<path id="패스_193" class="st8" d="M8.2,58.4H7c-0.3,0-0.5-0.2-0.5-0.5c0-0.3,0.2-0.5,0.5-0.5c0,0,0,0,0,0h1.2
						c0.3,0,0.5,0.2,0.5,0.5S8.6,58.4,8.2,58.4C8.3,58.4,8.2,58.4,8.2,58.4"/>
					<path id="패스_194" class="st8" d="M11.6,58.4h-1.2c-0.3,0-0.5-0.2-0.5-0.5s0.2-0.5,0.5-0.5c0,0,0,0,0,0h1.2
						c0.3,0,0.5,0.2,0.5,0.5S11.9,58.4,11.6,58.4C11.6,58.4,11.6,58.4,11.6,58.4"/>
					<path id="패스_195" class="st8" d="M9.3,57.3c-0.3,0-0.5-0.2-0.5-0.5l0,0v-1.2c0-0.3,0.2-0.5,0.5-0.5s0.5,0.2,0.5,0.5v1.2
						C9.8,57.1,9.6,57.3,9.3,57.3C9.3,57.3,9.3,57.3,9.3,57.3"/>
					<path id="패스_196" class="st8" d="M9.3,60.7c-0.3,0-0.5-0.2-0.5-0.5l0,0v-1.2c0-0.3,0.2-0.5,0.5-0.5s0.5,0.2,0.5,0.5v1.2
						C9.8,60.4,9.6,60.7,9.3,60.7C9.3,60.7,9.3,60.7,9.3,60.7"/>
					<path id="패스_197" class="st7" d="M90.8,12.7h-1.2c-0.3,0-0.5-0.3-0.5-0.5c0-0.3,0.2-0.5,0.5-0.5h1.2c0.3,0,0.5,0.2,0.5,0.5
						S91.2,12.7,90.8,12.7C90.9,12.7,90.9,12.7,90.8,12.7"/>
					<path id="패스_198" class="st7" d="M94.2,12.7H93c-0.3,0-0.5-0.3-0.5-0.5c0-0.3,0.2-0.5,0.5-0.5h1.2c0.3,0,0.5,0.2,0.5,0.5
						S94.5,12.7,94.2,12.7C94.2,12.7,94.2,12.7,94.2,12.7"/>
					<path id="패스_199" class="st7" d="M91.9,11.6c-0.3,0-0.5-0.2-0.5-0.5c0,0,0,0,0,0V9.9c0-0.3,0.2-0.5,0.5-0.5
						s0.5,0.2,0.5,0.5v1.2C92.4,11.4,92.2,11.6,91.9,11.6L91.9,11.6"/>
					<path id="패스_200" class="st7" d="M91.9,15c-0.3,0-0.5-0.2-0.5-0.5c0,0,0,0,0,0v-1.2c0-0.3,0.2-0.5,0.5-0.5s0.5,0.2,0.5,0.5
						v1.2C92.4,14.7,92.2,15,91.9,15L91.9,15"/>
					<path id="패스_201" class="st9" d="M75.1,40.5h2.5V0.5H52.2c-2.7-0.1-5.3,1.4-6.6,3.8v38.1c2-1.7,4.7-2.4,7.3-2H75.1z"/>
					<path id="패스_202" class="st2" d="M45.6,43c-0.1,0-0.1,0-0.2,0c-0.2-0.1-0.3-0.3-0.3-0.5V4.3c0-0.1,0-0.1,0-0.2
						c1.4-2.6,4.2-4.2,7.1-4.1h25.3c0.3,0,0.5,0.2,0.5,0.5c0,0,0,0,0,0v39.9c0,0.3-0.2,0.5-0.5,0.5c0,0,0,0,0,0H53c0,0-0.1,0-0.1,0
						c-0.5-0.1-0.9-0.1-1.4-0.1c-2,0-3.9,0.7-5.4,2C45.9,42.9,45.8,43,45.6,43 M46.2,4.4v37c1.6-1,3.4-1.6,5.3-1.5
						c0.5,0,1.1,0,1.6,0.1h24.1V1.1H52.2c-0.2,0-0.3,0-0.4,0C49.5,1.1,47.3,2.4,46.2,4.4"/>
					<path id="패스_203" class="st9" d="M39.1,0.5c2.7-0.1,5.3,1.4,6.6,3.8v38.1c-2-1.7-4.7-2.4-7.3-2H13.7V0.5H39.1z"/>
					<path id="패스_204" class="st2" d="M45.7,43c-0.1,0-0.3,0-0.3-0.1c-1.5-1.3-3.4-2-5.4-2c-0.5,0-1,0-1.4,0.1c0,0-0.1,0-0.1,0
						H13.7c-0.3,0-0.5-0.2-0.5-0.5c0,0,0,0,0,0V0.5c0-0.3,0.2-0.5,0.5-0.5c0,0,0,0,0,0h25.4c0.1,0,0.3,0,0.4,0
						c2.8,0.1,5.4,1.6,6.7,4.1c0,0.1,0,0.1,0,0.2v38.1c0,0.2-0.1,0.4-0.3,0.5C45.8,43,45.8,43,45.7,43 M39.9,39.8
						c1.9,0,3.7,0.5,5.3,1.5v-37c-1.2-2.1-3.6-3.4-6-3.3H14.2v38.9h24.1C38.8,39.9,39.4,39.8,39.9,39.8"/>
					<rect id="사각형_64" x="19.9" y="8.3" class="st10" width="21" height="18"/>
					<rect id="사각형_65" x="51.7" y="7" class="st5" width="3.9" height="3.9"/>
					<rect id="사각형_66" x="51.7" y="14.8" class="st5" width="3.9" height="3.9"/>
					<rect id="사각형_67" x="51.7" y="22.5" class="st5" width="3.9" height="3.9"/>
					<rect id="사각형_68" x="51.7" y="30.3" class="st5" width="3.9" height="3.9"/>
					<rect id="사각형_69" x="59.8" y="6.6" class="st2" width="10.5" height="0.8"/>
					<rect id="사각형_70" x="59.8" y="9.9" class="st2" width="10.5" height="0.8"/>
					<rect id="사각형_71" x="59.8" y="14.4" class="st2" width="10.5" height="0.8"/>
					<rect id="사각형_72" x="59.8" y="17.7" class="st2" width="10.5" height="0.8"/>
					<rect id="사각형_73" x="59.8" y="22.2" class="st2" width="10.5" height="0.8"/>
					<rect id="사각형_74" x="59.8" y="25.5" class="st2" width="10.5" height="0.8"/>
					<rect id="사각형_75" x="59.8" y="30" class="st2" width="10.5" height="0.8"/>
					<rect id="사각형_76" x="59.8" y="33.3" class="st2" width="10.5" height="0.8"/>
					<rect id="사각형_77" x="20" y="30.1" class="st2" width="20.8" height="0.8"/>
					<path id="패스_205" class="st9" d="M77,53c0,4.1-3.4,7.5-7.6,7.4C65.3,60.3,62,57,62,53v-7.7c0-4.1,3.4-7.5,7.6-7.4
						c4.1,0,7.4,3.3,7.4,7.4V53z"/>
					<path id="패스_206" class="st2" d="M69.5,61c-4.4,0-8-3.6-8-8v-7.7c0-4.4,3.6-8,8-8s8,3.6,8,8V53C77.5,57.4,73.9,61,69.5,61
						 M69.5,38.3c-3.9,0-7,3.1-7,7V53c0,3.9,3.1,7,7,7s7-3.1,7-7l0,0v-7.7C76.5,41.4,73.3,38.3,69.5,38.3"/>
					<rect id="사각형_78" x="62" y="47.9" class="st2" width="15" height="1"/>
					<rect id="사각형_79" x="69" y="37.7" class="st2" width="1" height="10.9"/>
					<path id="패스_207" class="st8" d="M70.5,47.4c0,0.6-0.4,1-1,1.1c-0.6,0-1-0.4-1.1-1c0,0,0,0,0-0.1v-2.5c0-0.6,0.4-1,1-1.1
						c0.6,0,1,0.4,1.1,1c0,0,0,0,0,0.1V47.4z"/>
					<path id="패스_208" class="st2" d="M69.5,49c-0.9,0-1.6-0.7-1.6-1.6v-2.5c0-0.9,0.7-1.6,1.5-1.6c0.9,0,1.6,0.7,1.6,1.5
						c0,0,0,0.1,0,0.1v2.5C71.1,48.3,70.4,49,69.5,49 M69.5,44.4c-0.3,0-0.5,0.2-0.5,0.5v2.5c0,0.3,0.2,0.5,0.5,0.5s0.5-0.2,0.5-0.5
						v-2.5C70,44.6,69.8,44.4,69.5,44.4"/>
					<path id="패스_209" class="st2" d="M65.8,60H33.2c-1.1,0.1-2.2-0.3-3-1c-0.5-0.5-0.8-1.1-0.8-1.8c0.1-1.7,1.4-3,3.1-3.1h9.6
						c2.1,0.1,2.3-1.3,2.3-1.4c0-0.3-0.1-0.6-0.3-0.9c-0.6-0.5-1.3-0.7-2-0.7H18.7c-1.6,0.2-3.3-0.3-4.6-1.3c-0.6-0.5-0.9-1.3-1-2
						v-3.1h1v3.1c0,0.5,0.3,1,0.7,1.3c1.1,0.8,2.4,1.2,3.8,1h23.5c1,0,2,0.4,2.7,1c0.4,0.4,0.6,1,0.6,1.6c0,0.9-0.8,2.5-3.3,2.4
						h-9.5c-1.1,0-2.1,0.9-2.1,2c0,0.4,0.2,0.8,0.5,1.1c0.6,0.5,1.4,0.8,2.2,0.7h32.6V60z"/>
				</g>
			</g>
		</g>
	</g>
</g>
</svg>
