<?xml version="1.0" encoding="utf-8"?>
<!-- Generator: Adobe Illustrator 26.5.0, SVG Export Plug-In . SVG Version: 6.00 Build 0)  -->
<svg version="1.1" id="레이어_1" xmlns="http://www.w3.org/2000/svg" xmlns:xlink="http://www.w3.org/1999/xlink" x="0px"
	 y="0px" viewBox="0 0 110 110" style="enable-background:new 0 0 110 110;" xml:space="preserve">
<style type="text/css">
	.st0{fill:#E9F8FF;}
	.st1{clip-path:url(#SVGID_00000042702933644468469520000009435114336787117992_);}
	.st2{fill:#C4E8EE;}
	.st3{fill:#2C4E5F;}
	.st4{fill:#FFFFFF;}
	.st5{fill:#FFA185;}
	.st6{fill:#FFD626;}
</style>
<g id="icon02" transform="translate(-460 -534)">
	<circle id="타원_1" class="st0" cx="515" cy="589" r="55"/>
	<g id="그룹_36" transform="translate(486.926 556.738)">
		<g>
			<defs>
				<rect id="SVGID_1_" x="0" y="0" width="56.1" height="64.5"/>
			</defs>
			<clipPath id="SVGID_00000062884185758876448830000009181663014181132719_">
				<use xlink:href="#SVGID_1_"  style="overflow:visible;"/>
			</clipPath>
			<g id="그룹_35" style="clip-path:url(#SVGID_00000062884185758876448830000009181663014181132719_);">
				<path id="패스_210" class="st2" d="M38.8,53h3.3V2.8H0.4v46.3c0,2.2,1.8,3.9,3.9,3.9c0,0,0,0,0,0H38.8z"/>
				<path id="패스_211" class="st3" d="M42.1,53.4H4.3c-2.4,0-4.3-1.9-4.3-4.3V2.8c0-0.2,0.2-0.4,0.4-0.4c0,0,0,0,0,0h41.7
					c0.2,0,0.4,0.2,0.4,0.4V53C42.5,53.2,42.3,53.4,42.1,53.4 M0.8,3.2v45.9c0,1.9,1.6,3.5,3.5,3.5h37.4V3.2H0.8z"/>
				<path id="패스_212" class="st4" d="M6.8,5.3h35.4V0.4H2.8c-1.3,0-2.4,1.1-2.4,2.4s1.1,2.4,2.4,2.4L6.8,5.3L6.8,5.3z"/>
				<path id="패스_213" class="st3" d="M42.1,5.7H2.8C1.3,5.7,0,4.4,0,2.8S1.3,0,2.8,0h39.3c0.2,0,0.4,0.2,0.4,0.4v4.8
					C42.5,5.5,42.3,5.7,42.1,5.7 M2.8,0.8c-1.1,0-2,0.9-2,2s0.9,2,2,2h38.9v-4H2.8z"/>
				<path id="패스_214" class="st4" d="M34.8,19.5v7.3H9.5V14.4h25.3C34.8,14.4,34.8,19.5,34.8,19.5z"/>
				<path id="패스_215" class="st3" d="M34.8,27.2H9.5c-0.2,0-0.4-0.2-0.4-0.4V14.4c0-0.2,0.2-0.4,0.4-0.4h25.3
					c0.2,0,0.4,0.2,0.4,0.4v12.4C35.2,27,35,27.2,34.8,27.2 M9.9,26.4h24.5V14.8H9.9V26.4z"/>
				<path id="패스_216" class="st5" d="M52.5,64.1h3.3V13.9H14v46.3c0,2.2,1.8,3.9,3.9,3.9c0,0,0,0,0,0H52.5z"/>
				<path id="패스_217" class="st3" d="M55.7,64.5H17.9c-2.4,0-4.3-1.9-4.3-4.3V13.9c0-0.2,0.2-0.4,0.4-0.4h41.7
					c0.2,0,0.4,0.2,0.4,0.4v50.2C56.1,64.3,56,64.5,55.7,64.5 M14.4,14.3v45.9c0,1.9,1.6,3.5,3.5,3.5h37.4V14.3L14.4,14.3z"/>
				<path id="패스_218" class="st4" d="M24.3,17.9h31.5V10H17.9c-2.2,0-3.9,1.8-3.9,3.9s1.8,3.9,3.9,3.9c0,0,0,0,0,0
					C17.9,17.9,24.3,17.9,24.3,17.9z"/>
				<path id="패스_219" class="st3" d="M55.7,18.3H17.9c-2.4,0-4.3-1.9-4.3-4.3c0-2.4,1.9-4.3,4.3-4.3h37.8c0.2,0,0.4,0.2,0.4,0.4
					v7.8C56.1,18.1,56,18.3,55.7,18.3 M17.9,10.4c-1.9,0-3.5,1.6-3.5,3.5s1.6,3.5,3.5,3.5c0,0,0,0,0,0h37.4v-7H17.9z"/>
				<path id="패스_220" class="st4" d="M48.4,30.6v7.3H23.1V25.5h25.3V30.6z"/>
				<path id="패스_221" class="st3" d="M48.4,38.3H23.1c-0.2,0-0.4-0.2-0.4-0.4V25.5c0-0.2,0.2-0.4,0.4-0.4h25.3
					c0.2,0,0.4,0.2,0.4,0.4v12.4C48.8,38.1,48.6,38.3,48.4,38.3 M23.5,37.5H48V25.9H23.5L23.5,37.5z"/>
				<rect id="사각형_81" x="45" y="6.3" class="st2" width="4.8" height="7.6"/>
				<path id="패스_222" class="st3" d="M49.8,14.3H45c-0.2,0-0.4-0.2-0.4-0.4V6.3c0-0.2,0.2-0.4,0.4-0.4h4.8
					c0.2,0,0.4,0.2,0.4,0.4v7.6C50.2,14.2,50,14.3,49.8,14.3 M45.4,13.5h4V6.7h-4V13.5z"/>
				<rect id="사각형_82" x="30.9" y="7.9" class="st6" width="4.8" height="7.6"/>
				<path id="패스_223" class="st3" d="M35.8,15.9h-4.8c-0.2,0-0.4-0.2-0.4-0.4V7.9c0-0.2,0.2-0.4,0.4-0.4h4.8
					c0.2,0,0.4,0.2,0.4,0.4v7.6C36.2,15.8,36,15.9,35.8,15.9 M31.4,15.1h4V8.3h-4V15.1z"/>
			</g>
		</g>
	</g>
</g>
</svg>
