<?xml version="1.0" encoding="utf-8"?>
<!-- Generator: Adobe Illustrator 26.5.0, SVG Export Plug-In . SVG Version: 6.00 Build 0)  -->
<svg version="1.1" id="레이어_1" xmlns="http://www.w3.org/2000/svg" xmlns:xlink="http://www.w3.org/1999/xlink" x="0px"
	 y="0px" viewBox="0 0 110 110" style="enable-background:new 0 0 110 110;" xml:space="preserve">
<style type="text/css">
	.st0{fill:#E9F8FF;}
	.st1{clip-path:url(#SVGID_00000081613036987898573150000008367288023146466176_);}
	.st2{fill:#E6E6E6;}
	.st3{fill:#2C4E5F;}
	.st4{fill:#6DD9E9;}
	.st5{fill:#F2F2F2;}
	.st6{fill:#FFFFFF;}
	.st7{fill:#FF6376;}
</style>
<g id="icon05" transform="translate(-906 -534)">
	<circle id="타원_3" class="st0" cx="961" cy="589" r="55"/>
	<g id="그룹_15" transform="translate(923 561)">
		<g>
			<defs>
				<rect id="SVGID_1_" y="0" width="75.6" height="71.1"/>
			</defs>
			<clipPath id="SVGID_00000044886804282600255410000000425928410260359835_">
				<use xlink:href="#SVGID_1_"  style="overflow:visible;"/>
			</clipPath>
			<g id="그룹_14" style="clip-path:url(#SVGID_00000044886804282600255410000000425928410260359835_);">
				<path id="패스_40" class="st2" d="M68.5,4.6l6.5,34c0.4,1.9,0,3.8-1,5.5l-6,9.4L68.5,4.6z"/>
				<path id="패스_41" class="st3" d="M68,53.9c0,0-0.1,0-0.1,0c-0.2-0.1-0.3-0.2-0.3-0.4L68,4.6c0-0.3,0.2-0.5,0.5-0.4
					c0.2,0,0.4,0.2,0.4,0.4l6.5,34c0.4,2,0,4.1-1.1,5.8l-6,9.4C68.3,53.8,68.1,53.9,68,53.9 M68.9,9.2l-0.5,42.6l5.1-8
					c1-1.5,1.3-3.4,1-5.1L68.9,9.2z"/>
				<path id="패스_42" class="st4" d="M68.5,4.6c0-2.3-1.9-4.2-4.2-4.2H9.7c-2.3,0-4.2,1.9-4.2,4.2V13h63V4.6z"/>
				<path id="패스_43" class="st3" d="M68.5,13.5h-63C5.2,13.5,5,13.3,5,13c0,0,0,0,0,0V4.6C5,2.1,7.1,0,9.7,0h54.7
					C66.9,0,69,2.1,69,4.6V13C69,13.3,68.8,13.5,68.5,13.5 M6,12.5H68V4.6c0-2.1-1.7-3.7-3.7-3.7H9.7C7.6,0.9,6,2.6,6,4.6V12.5z"/>
				<path id="패스_44" class="st5" d="M5.5,13v38.4c0,2.3,1.9,4.2,4.2,4.2h54.7c2.3,0,4.2-1.9,4.2-4.2V13H5.5z"/>
				<path id="패스_45" class="st3" d="M64.3,56.1H9.7C7.1,56.1,5,54,5,51.4V13c0-0.3,0.2-0.5,0.5-0.5h63c0.3,0,0.5,0.2,0.5,0.5
					v38.4C69,54,66.9,56.1,64.3,56.1 M6,13.5v38c0,2.1,1.7,3.7,3.7,3.7h54.7c2.1,0,3.7-1.7,3.7-3.7v-38H6z"/>
				<path id="패스_46" class="st6" d="M5.5,13v16.5c0,6.9-1.7,13.6-4.8,19.7l-0.2,0.4h62.8c3.4-5.4,5.3-11.7,5.3-18.1V13H5.5z"/>
				<path id="패스_47" class="st3" d="M63.3,50.1H0.5c-0.3,0-0.5-0.2-0.5-0.5c0-0.1,0-0.1,0.1-0.2L0.2,49C3.4,43,5,36.3,5,29.5V13
					c0-0.3,0.2-0.5,0.5-0.5h63c0.3,0,0.5,0.2,0.5,0.5v18.5c0,6.5-1.8,12.9-5.3,18.4C63.6,50,63.4,50.1,63.3,50.1 M1.2,49.2H63
					c3.3-5.3,5-11.4,5-17.7v-18H5.9v16.1C5.9,36.4,4.3,43.1,1.2,49.2"/>
				<path id="패스_48" class="st3" d="M64.1,21.9H8.7c-0.3,0-0.4-0.2-0.4-0.5c0-0.2,0.2-0.4,0.4-0.4h55.4c0.3,0,0.5,0.2,0.5,0.4
					C64.6,21.7,64.4,21.9,64.1,21.9C64.2,21.9,64.2,21.9,64.1,21.9"/>
				<path id="패스_49" class="st3" d="M64.1,28.6H8.7c-0.3,0-0.5-0.2-0.5-0.4c0-0.3,0.2-0.5,0.4-0.5c0,0,0,0,0,0h55.4
					c0.3,0,0.5,0.2,0.5,0.4C64.6,28.4,64.4,28.6,64.1,28.6C64.2,28.6,64.2,28.6,64.1,28.6"/>
				<path id="패스_50" class="st3" d="M64.1,35.3H8.7c-0.3,0-0.5-0.2-0.5-0.4c0-0.3,0.2-0.5,0.4-0.5c0,0,0,0,0,0h55.4
					c0.3,0,0.5,0.2,0.5,0.4C64.6,35.1,64.4,35.3,64.1,35.3C64.2,35.3,64.2,35.3,64.1,35.3"/>
				<path id="패스_51" class="st3" d="M62.6,42H7.2c-0.3,0-0.4-0.2-0.4-0.5c0-0.2,0.2-0.4,0.4-0.4h55.4c0.3,0,0.4,0.2,0.4,0.5
					C63,41.8,62.8,42,62.6,42"/>
				<path id="패스_52" class="st3" d="M12.5,47.3c-0.3,0-0.5-0.2-0.5-0.5c0-0.1,0-0.1,0-0.2l1.3-3.8c1.1-3,1.6-6.1,1.6-9.3V17.1
					c0-0.3,0.2-0.4,0.5-0.4c0.2,0,0.4,0.2,0.4,0.4v16.5c0,3.3-0.6,6.5-1.7,9.6L12.9,47C12.8,47.1,12.6,47.3,12.5,47.3"/>
				<path id="패스_53" class="st3" d="M20.8,47.3c-0.3,0-0.5-0.2-0.5-0.5c0-0.1,0-0.1,0-0.2l1.3-3.8c1.1-3,1.6-6.1,1.6-9.3V17.1
					c0-0.3,0.2-0.4,0.5-0.4c0.2,0,0.4,0.2,0.4,0.4v16.5c0,3.3-0.6,6.5-1.7,9.6L21.2,47C21.2,47.1,21,47.3,20.8,47.3"/>
				<path id="패스_54" class="st3" d="M29.1,47.3c-0.3,0-0.5-0.2-0.5-0.5c0-0.1,0-0.1,0-0.2l1.3-3.8c1.1-3,1.6-6.1,1.6-9.3V17.1
					c0-0.3,0.2-0.5,0.4-0.5s0.5,0.2,0.5,0.4c0,0,0,0,0,0v16.5c0,3.3-0.6,6.5-1.7,9.6L29.6,47C29.5,47.1,29.3,47.3,29.1,47.3"/>
				<path id="패스_55" class="st3" d="M37.5,47.3c-0.3,0-0.5-0.2-0.5-0.5c0-0.1,0-0.1,0-0.2l1.3-3.8c1.1-3,1.6-6.1,1.6-9.3V17.1
					c0-0.3,0.2-0.4,0.5-0.4c0.2,0,0.4,0.2,0.4,0.4v16.5c0,3.3-0.6,6.5-1.7,9.6L37.9,47C37.8,47.1,37.7,47.3,37.5,47.3"/>
				<path id="패스_56" class="st3" d="M45.8,47.3c-0.3,0-0.5-0.2-0.5-0.5c0-0.1,0-0.1,0-0.2l1.3-3.8c1.1-3,1.6-6.1,1.6-9.3V17.1
					c0-0.3,0.2-0.5,0.4-0.5s0.5,0.2,0.5,0.4c0,0,0,0,0,0v16.5c0,3.3-0.6,6.5-1.7,9.6L46.2,47C46.2,47.1,46,47.3,45.8,47.3"/>
				<path id="패스_57" class="st3" d="M54.1,47.3c-0.3,0-0.5-0.2-0.5-0.5c0-0.1,0-0.1,0-0.2l1.3-3.8c1.1-3,1.6-6.1,1.6-9.3V17.1
					c0-0.3,0.2-0.5,0.4-0.5s0.5,0.2,0.5,0.4c0,0,0,0,0,0v16.5c0,3.3-0.6,6.5-1.7,9.6L54.6,47C54.5,47.1,54.3,47.3,54.1,47.3"/>
				<path id="패스_58" class="st7" d="M35.5,44.6c-3.8,0-6.9-3.1-6.9-6.8s3.1-6.9,6.9-6.9c3.8,0,6.9,3.1,6.9,6.8l0,0
					C42.4,41.5,39.3,44.6,35.5,44.6 M35.5,31.8c-3.3,0-5.9,2.7-5.9,5.9s2.7,5.9,5.9,5.9c3.3,0,5.9-2.7,5.9-5.9c0,0,0,0,0,0
					C41.4,34.4,38.8,31.8,35.5,31.8"/>
				<path id="패스_59" class="st7" d="M44.8,23.8c-0.2,0-0.3-0.1-0.4-0.2l-2-3.5c-0.1-0.2-0.1-0.5,0.1-0.6
					c0.2-0.1,0.5-0.1,0.6,0.1c0,0,0,0,0,0l1.6,2.7l2.1-4.9c0.1-0.2,0.4-0.3,0.6-0.2c0.2,0.1,0.3,0.4,0.2,0.6l-2.5,5.8
					C45.2,23.7,45,23.8,44.8,23.8L44.8,23.8"/>
				<path id="패스_60" class="st7" d="M12.2,31.8c-0.2,0-0.3-0.1-0.4-0.2l-2-3.5c-0.1-0.2,0-0.5,0.2-0.6c0.2-0.1,0.5-0.1,0.6,0.2
					l1.6,2.7l2.1-4.9c0.1-0.2,0.4-0.3,0.6-0.2c0.2,0.1,0.3,0.4,0.2,0.6l-2.5,5.8C12.6,31.7,12.4,31.8,12.2,31.8L12.2,31.8"/>
				
					<rect id="사각형_12" x="49.2" y="43.1" transform="matrix(0.7071 -0.7071 0.7071 0.7071 -26.1846 53.396)" class="st6" width="4.4" height="30.4"/>
				<path id="패스_61" class="st3" d="M60.6,71.1c-0.1,0-0.2,0-0.3-0.1L38.7,49.4c-0.2-0.2-0.2-0.5,0-0.6c0,0,0,0,0,0l3.1-3.1
					c0.2-0.2,0.5-0.2,0.6,0L64,67.2c0.2,0.2,0.2,0.5,0,0.6c0,0,0,0,0,0l-3.1,3.1C60.8,71,60.7,71.1,60.6,71.1 M39.7,49.1L60.6,70
					l2.5-2.5L42.2,46.6L39.7,49.1z"/>
				<path id="패스_62" class="st7" d="M42.2,46l-4.2-2c-0.3-0.2-0.7,0-0.9,0.3c-0.1,0.2-0.1,0.4,0,0.6l2,4.2L42.2,46z"/>
				<path id="패스_63" class="st3" d="M39.1,49.6c-0.2,0-0.3-0.1-0.4-0.3l-2-4.2c-0.3-0.6,0-1.2,0.5-1.5c0.3-0.1,0.6-0.1,0.9,0
					l4.2,2c0.2,0.1,0.3,0.4,0.2,0.6c0,0-0.1,0.1-0.1,0.1l-3.1,3.1C39.3,49.5,39.2,49.6,39.1,49.6 M37.7,44.4c-0.1,0-0.1,0-0.1,0.1
					c-0.1,0.1-0.1,0.2,0,0.2l1.7,3.6l2.2-2.2L37.7,44.4C37.7,44.4,37.7,44.4,37.7,44.4"/>
				<path id="패스_64" class="st3" d="M61.3,65.6c-0.3,0-0.5-0.2-0.5-0.5c0-0.1,0-0.2,0.1-0.3l0.5-0.5c0.2-0.2,0.2-0.6,0-0.9l-6-6
					c-0.2-0.2-0.2-0.5,0-0.6c0.2-0.2,0.5-0.2,0.6,0l6,6c0.6,0.6,0.6,1.6,0,2.2c0,0,0,0,0,0l-0.5,0.5C61.6,65.6,61.5,65.6,61.3,65.6"
					/>
				
					<rect id="사각형_13" x="59.1" y="64.8" transform="matrix(0.7071 -0.7071 0.7071 0.7071 -29.5729 61.7615)" class="st7" width="1.2" height="3.5"/>
				<path id="패스_65" class="st3" d="M60.6,68.7c-0.1,0-0.2,0-0.3-0.1l-2.5-2.5c-0.2-0.2-0.2-0.5,0-0.6l0.9-0.9
					c0.2-0.2,0.5-0.2,0.6,0c0,0,0,0,0,0l2.5,2.5c0.2,0.2,0.2,0.5,0,0.6c0,0,0,0,0,0l-0.9,0.9C60.8,68.7,60.7,68.7,60.6,68.7
					 M58.7,65.8l1.8,1.8l0.2-0.2L59,65.6L58.7,65.8z"/>
			</g>
		</g>
	</g>
</g>
</svg>
