<?xml version="1.0" encoding="utf-8"?>
<!-- Generator: Adobe Illustrator 26.0.3, SVG Export Plug-In . SVG Version: 6.00 Build 0)  -->
<svg version="1.1" id="레이어_1" xmlns="http://www.w3.org/2000/svg" xmlns:xlink="http://www.w3.org/1999/xlink" x="0px"
	 y="0px" viewBox="0 0 6 10" style="enable-background:new 0 0 6 10;" xml:space="preserve">
<style type="text/css">
	.st0{fill:#43A1FC;}
</style>
<path id="패스_147" class="st0" d="M5.8,5.3C6,5.1,6,4.9,5.8,4.7c0,0,0,0,0,0L1.3,0.1C1.1,0,0.9,0,0.7,0.1c0,0,0,0,0,0L0.1,0.7
	C0,0.9,0,1.1,0.1,1.3c0,0,0,0,0,0L3.8,5L0.1,8.7C0,8.9,0,9.1,0.1,9.3c0,0,0,0,0,0l0.6,0.6c0.1,0.1,0.4,0.1,0.5,0c0,0,0,0,0,0
	L5.8,5.3z"/>
</svg>
