<?xml version="1.0" encoding="utf-8"?>
<!-- Generator: Adobe Illustrator 26.0.3, SVG Export Plug-In . SVG Version: 6.00 Build 0)  -->
<svg version="1.1" id="레이어_1" xmlns="http://www.w3.org/2000/svg" xmlns:xlink="http://www.w3.org/1999/xlink" x="0px"
	 y="0px" viewBox="0 0 30.1 23.5" style="enable-background:new 0 0 30.1 23.5;" xml:space="preserve">
<style type="text/css">
	.st0{fill:#167DE2;}
	.st1{clip-path:url(#SVGID_00000110451208366533020440000004757599715700675987_);}
	.st2{fill:#1369BE;}
</style>
<g id="그룹_130" transform="translate(368.639 365.683)">
	<g>
		<g id="그룹_118" transform="translate(0 0)">
			<path id="패스_146" class="st0" d="M-338.8-354c0-0.1-0.1-0.2-0.1-0.3c-0.2-0.2-0.5-0.2-0.7,0c0,0,0,0,0,0
				c-0.1,0.2-0.2,0.5-0.2,0.8c-1.5-0.2-3-0.4-4.5-0.6c-0.1-0.4-0.2-0.7-0.4-1c0-0.1-0.1-0.2-0.2-0.3c0.6-0.8,1.3-1.5,1.9-2.3
				c0.1,0.1,0.3,0.2,0.4,0.4c0.1,0.1,0.3,0.2,0.5,0c0.1-0.1,0.1-0.2,0.1-0.4c-0.2-0.6-0.6-1.1-1.2-1.4c-0.1,0-0.1-0.1-0.2-0.1
				c-0.2,0-0.3,0.2-0.3,0.4c0,0.2,0.2,0.4,0.3,0.5c-0.8,0.6-1.5,1.2-2.3,1.8c-0.3-0.3-0.7-0.6-1.1-0.8c0.3-0.9,0.6-1.9,0.9-2.8
				c0.2,0.1,0.3,0.1,0.5,0.2c0.2,0.1,0.4,0,0.5-0.2c0-0.1,0-0.3-0.1-0.4c-0.4-0.5-1-0.8-1.6-0.8c-0.1,0-0.2,0-0.2,0
				c-0.2,0.1-0.2,0.3-0.1,0.5c0,0,0,0,0,0c0.1,0.2,0.3,0.3,0.5,0.3c-0.5,0.9-1,1.8-1.4,2.7c-0.2-0.1-0.5-0.1-0.7-0.1
				c-0.2-1.4-0.4-2.9-0.6-4.4c0.3,0,0.5-0.1,0.8-0.1c0.3,0,0.5-0.2,0.5-0.5c0-0.2-0.2-0.4-0.3-0.5c-0.8-0.4-1.8-0.4-2.7,0
				c-0.1,0-0.2,0.1-0.3,0.1c-0.2,0.2-0.1,0.5,0.1,0.7c0,0,0,0,0.1,0c0.3,0.1,0.5,0.2,0.8,0.1c-0.1,1.6-0.1,3.1-0.2,4.7
				c-0.2,0.1-0.4,0.1-0.6,0.2c-0.6-0.8-1.2-1.7-1.8-2.5c0.1-0.1,0.3-0.2,0.5-0.3c0.2-0.1,0.2-0.3,0.2-0.5c-0.1-0.1-0.2-0.2-0.3-0.2
				c-0.6,0-1.2,0.3-1.6,0.8c-0.1,0-0.1,0.1-0.1,0.2c-0.1,0.2,0.1,0.4,0.3,0.4c0.2,0,0.4-0.1,0.5-0.2c0.5,0.9,0.9,1.9,1.4,2.9
				c-0.2,0.2-0.4,0.3-0.6,0.5c-1.2-0.8-2.3-1.7-3.5-2.5c0.1-0.2,0.3-0.4,0.5-0.6c0.2-0.2,0.2-0.5,0-0.7c-0.2-0.1-0.4-0.1-0.6-0.1
				c-0.9,0.3-1.5,1-1.9,1.9c-0.1,0.1-0.1,0.2-0.1,0.3c0,0.3,0.3,0.5,0.6,0.4c0.3-0.1,0.5-0.3,0.7-0.5c1,1.1,2.1,2.2,3.1,3.2
				c-0.2,0.3-0.3,0.6-0.4,0.8c-1-0.2-2-0.4-3-0.5c0-0.2,0.1-0.4,0.1-0.5c0-0.2,0-0.4-0.2-0.5c-0.1,0-0.3,0-0.4,0.1
				c-0.4,0.5-0.7,1.1-0.6,1.7c0,0.1,0,0.2,0,0.2c0.1,0.2,0.3,0.2,0.5,0.1c0,0,0,0,0,0c0.1-0.1,0.2-0.3,0.3-0.5c1,0.4,2,0.8,3,1.1
				c0,0.1,0,0.2,0,0.3c0,0.2,0,0.3,0,0.5c-1.3,0.3-2.7,0.6-4,0.9c-0.1-0.3-0.1-0.5-0.1-0.8c-0.1-0.3-0.3-0.5-0.5-0.5
				c-0.2,0-0.3,0.2-0.4,0.4c-0.3,0.9-0.2,1.8,0.2,2.7c0,0.1,0.1,0.2,0.2,0.3c0.2,0.1,0.5,0.1,0.7-0.2c0,0,0,0,0-0.1
				c0.1-0.3,0.1-0.6,0.1-0.8c1.5-0.1,3-0.1,4.5-0.2c0.1,0.2,0.2,0.4,0.4,0.6c-0.6,0.7-1.3,1.5-1.9,2.2c-0.2-0.1-0.3-0.3-0.4-0.4
				c-0.1-0.1-0.3-0.1-0.5,0c-0.1,0.1-0.1,0.2-0.1,0.4c0.2,0.6,0.6,1.1,1.2,1.4c0.1,0,0.1,0.1,0.2,0.1c0.2,0,0.3-0.2,0.3-0.4
				c-0.1-0.2-0.2-0.4-0.3-0.5c0.8-0.7,1.6-1.3,2.4-1.9c0.2,0.1,0.4,0.3,0.7,0.4c-0.3,1.4-0.7,2.7-1.1,4.1c-0.3,0-0.5-0.2-0.8-0.2
				c-0.3-0.1-0.5,0-0.7,0.3c0,0.2,0,0.4,0.1,0.5c0.6,0.7,1.5,1.1,2.4,1.1c0.1,0,0.2,0,0.3,0c0.2-0.1,0.3-0.4,0.2-0.7c0,0,0,0,0,0
				c-0.2-0.2-0.4-0.4-0.7-0.4c0.6-1.4,1.3-2.7,1.9-4c0.4,0,0.7,0.1,1.1,0c0.1,0.9,0.2,1.9,0.4,2.8c-0.2,0-0.4,0-0.5,0
				c-0.2,0-0.4,0.2-0.4,0.3c0,0.1,0.1,0.3,0.2,0.3c0.6,0.3,1.2,0.3,1.8,0.1c0.1,0,0.1,0,0.2-0.1c0.1-0.1,0.1-0.4-0.1-0.5
				c0,0,0,0,0,0c-0.2-0.1-0.4-0.1-0.6-0.1c0.1-1,0.1-2,0.2-3c0.3-0.1,0.6-0.2,0.8-0.3c0.9,1.1,1.8,2.3,2.7,3.5
				c-0.2,0.2-0.4,0.3-0.7,0.5c-0.2,0.2-0.3,0.4-0.2,0.7c0.1,0.2,0.3,0.2,0.5,0.2c0.9-0.1,1.8-0.5,2.4-1.3c0.1-0.1,0.2-0.2,0.2-0.3
				c0.1-0.3-0.2-0.5-0.5-0.6c-0.3,0-0.6,0.1-0.8,0.3c-0.7-1.3-1.4-2.7-2.1-4.1c0,0,0.1-0.1,0.1-0.1c0.2-0.2,0.3-0.4,0.5-0.6
				c0.9,0.5,1.7,1,2.6,1.4c-0.1,0.2-0.2,0.3-0.3,0.5c-0.1,0.2-0.1,0.4,0.1,0.5c0.1,0.1,0.3,0.1,0.4,0c0.6-0.3,1-0.8,1.1-1.5
				c0-0.1,0.1-0.1,0-0.2c0-0.2-0.3-0.3-0.5-0.2c-0.2,0.1-0.3,0.2-0.4,0.4c-0.8-0.7-1.6-1.4-2.5-2c0.1-0.4,0.2-0.8,0.3-1.2
				c1.4-0.1,2.8-0.2,4.2-0.3c0.1,0.3,0,0.5,0,0.8s0.2,0.6,0.5,0.6c0.2,0,0.4-0.1,0.5-0.3C-338.6-352.1-338.5-353.1-338.8-354"/>
		</g>
	</g>
</g>
<g id="그룹_131" transform="translate(357.78 363.528)">
	<g>
		<defs>
			<rect id="SVGID_1_" x="-357.6" y="-363.4" width="8.4" height="10.5"/>
		</defs>
		<clipPath id="SVGID_00000122697419408272839880000002022296101815699633_">
			<use xlink:href="#SVGID_1_"  style="overflow:visible;"/>
		</clipPath>
		
			<g id="그룹_118-2" transform="translate(0 0)" style="clip-path:url(#SVGID_00000122697419408272839880000002022296101815699633_);">
			<path id="패스_146-2" class="st2" d="M-349.4-358.7c0-0.1,0-0.1-0.1-0.2c-0.1-0.1-0.3-0.1-0.3,0c0,0,0,0,0,0
				c-0.1,0.1-0.1,0.3-0.1,0.4c-0.8-0.1-1.5-0.2-2.3-0.3c0-0.2-0.1-0.4-0.2-0.5c0-0.1-0.1-0.1-0.1-0.1c0.3-0.4,0.7-0.8,1-1.1
				c0.1,0.1,0.1,0.1,0.2,0.2c0.1,0.1,0.2,0.1,0.3,0c0-0.1,0.1-0.1,0-0.2c-0.1-0.3-0.3-0.6-0.6-0.7c0,0-0.1,0-0.1,0
				c-0.1,0-0.2,0.1-0.2,0.2c0,0.1,0.1,0.2,0.2,0.2c-0.4,0.3-0.8,0.6-1.2,0.9c-0.2-0.2-0.3-0.3-0.5-0.4c0.1-0.5,0.3-0.9,0.4-1.4
				c0.1,0,0.2,0.1,0.3,0.1c0.1,0,0.2,0,0.2-0.1c0-0.1,0-0.1,0-0.2c-0.2-0.2-0.5-0.4-0.8-0.4c0,0-0.1,0-0.1,0c-0.1,0-0.1,0.1-0.1,0.2
				c0,0,0,0,0,0c0.1,0.1,0.1,0.1,0.2,0.2c-0.2,0.5-0.5,0.9-0.7,1.4c-0.1,0-0.2-0.1-0.4-0.1c-0.1-0.7-0.2-1.5-0.3-2.2
				c0.1,0,0.3,0,0.4,0c0.1,0,0.3-0.1,0.3-0.3c0-0.1-0.1-0.2-0.2-0.2c-0.4-0.2-0.9-0.2-1.3,0c-0.1,0-0.1,0-0.2,0.1
				c-0.1,0.1-0.1,0.3,0,0.3c0,0,0,0,0,0c0.1,0.1,0.3,0.1,0.4,0.1c0,0.8-0.1,1.6-0.1,2.3c-0.1,0-0.2,0.1-0.3,0.1
				c-0.3-0.4-0.6-0.8-0.9-1.2c0.1-0.1,0.2-0.1,0.2-0.2c0.1-0.1,0.1-0.2,0.1-0.2c0-0.1-0.1-0.1-0.2-0.1c-0.3,0-0.6,0.2-0.8,0.4
				c0,0-0.1,0.1-0.1,0.1c0,0.1,0.1,0.2,0.2,0.2c0.1,0,0.2,0,0.3-0.1c0.2,0.5,0.5,1,0.7,1.4c-0.1,0.1-0.2,0.2-0.3,0.2
				c-0.6-0.4-1.2-0.9-1.8-1.2c0.1-0.1,0.2-0.2,0.2-0.3c0.1-0.1,0.1-0.3,0-0.4c-0.1-0.1-0.2-0.1-0.3,0c-0.4,0.2-0.8,0.5-0.9,1
				c0,0,0,0.1-0.1,0.2c0,0.1,0.2,0.2,0.3,0.2c0.1,0,0.2-0.1,0.3-0.2c0.5,0.5,1,1.1,1.6,1.6c-0.1,0.1-0.1,0.3-0.2,0.4
				c-0.5-0.1-1-0.2-1.5-0.3c0-0.1,0-0.2,0.1-0.3c0-0.1,0-0.2-0.1-0.2c-0.1,0-0.1,0-0.2,0.1c-0.2,0.2-0.3,0.5-0.3,0.9
				c0,0,0,0.1,0,0.1c0.1,0.1,0.2,0.1,0.2,0c0,0,0,0,0,0c0.1-0.1,0.1-0.2,0.1-0.3c0.5,0.2,1,0.4,1.5,0.6c0,0.1,0,0.1,0,0.2
				c0,0.1,0,0.2,0,0.3c-0.7,0.2-1.3,0.3-2,0.5c0-0.1-0.1-0.3-0.1-0.4c0-0.1-0.1-0.3-0.3-0.2c-0.1,0-0.2,0.1-0.2,0.2
				c-0.2,0.4-0.1,0.9,0.1,1.3c0,0.1,0,0.1,0.1,0.1c0.1,0.1,0.3,0,0.3-0.1c0,0,0,0,0,0c0.1-0.1,0.1-0.3,0-0.4c0.8,0,1.5-0.1,2.3-0.1
				c0.1,0.1,0.1,0.2,0.2,0.3c-0.3,0.4-0.6,0.7-0.9,1.1c-0.1,0-0.1-0.1-0.2-0.2c-0.1-0.1-0.2-0.1-0.3,0c0,0.1-0.1,0.1,0,0.2
				c0.1,0.3,0.3,0.6,0.6,0.7c0,0,0.1,0,0.1,0c0.1,0,0.2-0.1,0.2-0.2c0-0.1-0.1-0.2-0.2-0.2c0.4-0.3,0.8-0.7,1.2-1
				c0.1,0.1,0.2,0.1,0.3,0.2c-0.2,0.7-0.4,1.4-0.5,2c-0.1,0-0.3-0.1-0.4-0.1c-0.1,0-0.3,0-0.3,0.1c0,0.1,0,0.2,0.1,0.3
				c0.3,0.3,0.8,0.5,1.2,0.5c0.1,0,0.1,0,0.2,0c0.1-0.1,0.2-0.2,0.1-0.3c0,0,0,0,0,0c-0.1-0.1-0.2-0.2-0.4-0.2c0.3-0.7,0.6-1.4,1-2
				c0.2,0,0.4,0,0.5,0c0.1,0.5,0.1,0.9,0.2,1.4c-0.1,0-0.2,0-0.3,0c-0.1,0-0.2,0.1-0.2,0.2c0,0.1,0.1,0.1,0.1,0.2
				c0.3,0.1,0.6,0.1,0.9,0c0,0,0.1,0,0.1,0c0.1-0.1,0-0.2,0-0.2c0,0,0,0,0,0c-0.1,0-0.2-0.1-0.3-0.1c0-0.5,0.1-1,0.1-1.5
				c0.1,0,0.3-0.1,0.4-0.1c0.5,0.6,0.9,1.2,1.3,1.7c-0.1,0.1-0.2,0.1-0.3,0.2c-0.1,0.1-0.2,0.2-0.1,0.4c0.1,0.1,0.2,0.1,0.3,0.1
				c0.5,0,0.9-0.3,1.2-0.6c0,0,0.1-0.1,0.1-0.1c0-0.1-0.1-0.3-0.2-0.3c-0.1,0-0.3,0.1-0.4,0.1c-0.4-0.7-0.7-1.4-1-2c0,0,0,0,0.1-0.1
				c0.1-0.1,0.2-0.2,0.2-0.3c0.4,0.2,0.9,0.5,1.3,0.7c0,0.1-0.1,0.2-0.1,0.2c-0.1,0.1,0,0.2,0,0.3c0.1,0,0.1,0,0.2,0
				c0.3-0.2,0.5-0.4,0.6-0.7c0,0,0-0.1,0-0.1c0-0.1-0.1-0.1-0.2-0.1c-0.1,0-0.2,0.1-0.2,0.2c-0.4-0.3-0.8-0.7-1.2-1
				c0.1-0.2,0.1-0.4,0.1-0.6c0.7-0.1,1.4-0.1,2.1-0.1c0,0.1,0,0.3,0,0.4s0.1,0.3,0.2,0.3c0.1,0,0.2-0.1,0.2-0.1
				C-349.3-357.7-349.2-358.2-349.4-358.7"/>
		</g>
	</g>
</g>
</svg>
