<svg xmlns="http://www.w3.org/2000/svg" width="46" height="46" viewBox="0 0 46 46">
  <g id="kakao" transform="translate(-1579 -195)">
    <rect id="사각형_565" data-name="사각형 565" width="46" height="46" rx="5" transform="translate(1579 195)" fill="#fae100"/>
    <g id="그룹_850" data-name="그룹 850" transform="translate(1218.837 23.998)">
      <path id="패스_3848" data-name="패스 3848" d="M383.221,178c-8.316,0-15.058,6.265-15.058,13.994a13.667,13.667,0,0,0,5.992,11.173v6.141a.232.232,0,0,0,.366.188l5.389-3.849a16.215,16.215,0,0,0,3.311.34c8.317,0,15.058-6.265,15.058-13.994S391.538,178,383.221,178Z" transform="translate(0)" fill="#070304"/>
      <g id="그룹_849" data-name="그룹 849" transform="translate(373.055 185.994)">
        <path id="패스_3849" data-name="패스 3849" d="M437.375,210.511a2.919,2.919,0,0,0-2.246-.836,3.047,3.047,0,0,0-1.474.356,3.548,3.548,0,0,0-.844.627v-4.53h-2.13v12H432.8v-4.484a3.082,3.082,0,0,1,.152-1,2.269,2.269,0,0,1,.407-.739,1.757,1.757,0,0,1,.591-.456,1.67,1.67,0,0,1,.715-.158,1.38,1.38,0,0,1,1.012.353,1.823,1.823,0,0,1,.355,1.292v5.193h2.115v-5.108A3.615,3.615,0,0,0,437.375,210.511Z" transform="translate(-417.808 -206.128)" fill="#fae100"/>
        <path id="패스_3850" data-name="패스 3850" d="M391.05,209.209a3.5,3.5,0,0,1,3.257,2.316h2.273a5.724,5.724,0,0,0-5.53-4.578,5.89,5.89,0,0,0,0,11.771,5.724,5.724,0,0,0,5.53-4.578h-2.273a3.5,3.5,0,0,1-3.257,2.316,3.627,3.627,0,0,1,0-7.249Z" transform="translate(-385.378 -206.715)" fill="#fae100"/>
      </g>
    </g>
  </g>
</svg>
