<?xml version="1.0" encoding="utf-8"?>
<!-- Generator: Adobe Illustrator 25.2.0, SVG Export Plug-In . SVG Version: 6.00 Build 0)  -->
<svg version="1.1" id="레이어_1" xmlns="http://www.w3.org/2000/svg" xmlns:xlink="http://www.w3.org/1999/xlink" x="0px"
	 y="0px" viewBox="0 0 190 23" style="enable-background:new 0 0 190 23;" xml:space="preserve">
<style type="text/css">
	.st0{fill:#ED6B00;}
	.st1{fill:#00905F;}
	.st2{fill:#0061B1;}
	.st3{fill:#1A1311;}
	.st4{fill:#5F5E5E;}
</style>
<g transform="translate(-67.953 -97.31)">
	<path class="st0" d="M105.5,97.4c0,0-0.1,0-0.1-0.1c-0.2,0-0.3,0.1-0.6,0.3l-0.2,0.2c-0.7,0.4-1.2,2.1-1.4,2.9l-0.1,0
		c-0.4-0.8-1.2-1.4-2.1-1.5c0.3,1.3,1.4,5,2.9,4.7c0.7-0.2,2.3-3.3,2.3-5v-0.1C106.3,97.8,105.9,97.5,105.5,97.4z"/>
	<path class="st1" d="M115.4,116.6c-1.4-0.1-2.9,0.1-4.3,0.6c-0.3,0.1-0.5,0.3-0.7,0.5c0,0.4-0.2,1,0.2,1.1c0,0,0,0.1,0,0.1
		c0.1,0.1,0.2,0.1,0.3,0.3c0.1,0.1,0.1,0,0.2,0c0,0,0.1,0.1,0.1,0.1c0.2,0.1,0.3,0.1,0.5,0.1c0.1,0.1,0.2,0.1,0.3,0.1
		c0.1,0,0.1,0.1,0.1,0.1c0.3,0.1,0.7,0.1,1,0c1,0,0.8-0.1,1.9-0.1c0.9,0,1.7,0.1,2.6,0.1c0.5,0,1,0,1.4,0c0.8,0,1.6,0.1,2.5,0.1
		c0.4,0,0.9,0.2,1.3,0.2c0.4-0.1,0.9-0.1,1.3,0c0.1,0,0.3,0,0.4,0.1c0.1,0.1,0.3,0.1,0.4,0.1c0.4,0,0.8-0.1,1.1-0.3
		c0.2,0,0.5-0.1,0.7-0.2c0.1-0.1,0.2-0.2,0.2-0.4c0.1-0.3,0.2-0.7,0.1-1c0,0-0.1,0-0.1,0c0-0.1,0-0.2-0.1-0.2
		c-0.2-0.1-0.3-0.1-0.5-0.1c-0.2,0-0.4-0.1-0.7-0.2C122.4,117,118.9,116.6,115.4,116.6z"/>
	<path class="st2" d="M97.6,117.3c0.2,0,0.4,0,0.5,0.2c0.1,0.1-0.1,0.3-0.1,0.4c0,0.3,0.1,0.6,0.1,0.9c0,0.1,0,0.1-0.1,0.2
		c-0.1,0.1-0.1,0.2-0.2,0.2c-0.3,0.2-0.6,0.1-0.9,0.2c-0.4,0.1-0.8,0.2-1.2,0.2c-0.7,0-1.4,0-2.1-0.1c-0.3,0-0.5,0-0.8,0.1
		c-0.3,0.1-0.7,0.1-1,0.1c-1.7-0.1-3.4-0.1-5.1-0.1c-0.3,0-0.6,0.1-0.9,0.1c-1.4,0.1-2.8,0.1-4.1,0.1c-0.5,0-1,0-1.4,0l-0.8,0
		c-1,0.1-2.1,0.1-3.1,0.1l-1.2,0c-1.1,0.1-2.3,0.2-3.5,0.2c-0.8,0-1.7-0.3-2.4-0.6c-0.5-0.3-0.9-0.6-1.2-1.1
		c0.2-0.2,0.5-0.4,0.8-0.4c0.7-0.2,1.5-0.4,2.3-0.5c0.7-0.1,1.3-0.2,1.9-0.2c7-0.6,14.1-0.6,21.2-0.2
		C95.3,116.9,96.4,117,97.6,117.3z"/>
	<path class="st3" d="M112.5,109.6L112.5,109.6c0.1,0.3,0.2,0.3,0.4,0.5h0.5c0-0.1,0.1,0,0.1-0.1c0.1,0,0.3-0.1,0.4-0.2h0.1
		c0.1-0.1,0.2-0.2,0.4-0.2l0.6-0.7c0-0.1,0-0.2,0.1-0.2c0.1-0.5,0.2-0.9,0.4-1.3c0-0.2,0-0.3,0-0.5c0,0,0.1,0,0.1,0
		c0-0.2,0.1-0.3,0.2-0.4c0.1,0,0.2,0,0.2-0.1v-0.1c0.2,0,0.4,0.1,0.6,0.3h0.3c0,0.1,0.1,0.1,0.1,0.1c0.3,0,0.6,0,0.9,0
		c0,0.1,0.2,0.1,0.3,0.2c0,0.1,0.1,0.3,0.2,0.4c0,0.1,0,0.1-0.1,0.1c0.1,0.1,0.2,0.4,0.1,0.5c0.1,0.2,0,0.4,0.1,0.6
		c-0.1,0.1-0.1,0.2-0.1,0.3c0.1,0.2,0.1,0.4,0.2,0.7c0.2,0.2,0.2,0.5,0.3,0.8v0.3c0.1,0,0,0.1,0.1,0.1c0,0.3,0,0.6-0.1,0.9
		c-0.1,0-0.1,0.1-0.2,0.1v0.1c-0.1,0-0.1,0-0.1,0c-0.1,0.1-0.3,0.2-0.4,0.4c-0.1,0-0.2,0-0.2,0c-0.1,0,0,0.1-0.1,0.1
		c-0.1,0-0.2,0-0.3,0.1c-0.1,0-0.5,0-0.6,0l-0.1,0c-0.1,0.1-0.1,0.1-0.2,0.1c0,0,0-0.1-0.1-0.1c-0.1,0.1-0.2,0.2-0.4,0.2
		c0-0.1,0-0.2-0.1-0.2c0-0.3-0.1-0.6-0.2-0.8c0,0,0,0,0-0.1c-0.1-0.1-0.1-0.3-0.1-0.4c-0.1-0.2-0.2-0.4-0.3-0.6c0,0-0.1-0.1,0-0.1
		c-0.1-0.1-0.1-0.1-0.2-0.2c-0.1,0-0.1,0-0.1,0.1c0,0.2-0.2,0.4-0.3,0.6l0,0c0,0.1-0.2,0.2-0.2,0.3c-0.1,0-0.1,0.2-0.2,0.2v0.1
		c-0.3,0.3-0.4,0.7-0.8,0.8c-0.1,0.2-0.3,0.2-0.4,0.4c-0.2,0-0.3,0-0.5,0.1c-0.1-0.1-0.3-0.2-0.4-0.1c0,0-0.1,0-0.1,0l-0.1,0
		c-0.1-0.1-0.3,0-0.4,0c-0.3-0.2-0.7-0.4-1-0.5c-0.1,0,0-0.1-0.1-0.1c-0.1,0-0.1,0-0.2,0c0-0.1,0.1-0.2-0.1-0.3l0.1,0
		c0,0-0.1,0-0.1,0c-0.1-0.3-0.2-0.5-0.3-0.8c-0.1-0.1-0.1-0.1-0.1-0.1c0-0.1,0-0.3-0.1-0.4c-0.1-0.2,0.1-0.4,0-0.6
		c0-0.1,0-0.1,0.1-0.1c0-0.2,0-0.4,0-0.6c0,0,0,0,0-0.1c0.1-0.2,0.1-0.4,0.1-0.6c0-0.1,0.1-0.3,0.2-0.4l0,0c0.1-0.1,0-0.2,0.2-0.3
		c0,0,0-0.1,0-0.1c0-0.1,0.1-0.1,0.1-0.2c0.1-0.2,0.2-0.4,0.4-0.5l0-0.1c0.1-0.1,0.3-0.2,0.5-0.2c0.2,0,0.3,0.1,0.5,0.2
		c0.1,0.1,0,0.2,0.1,0.3h0.1v0.1c0,0,0,0,0.1,0c0.1,0.1,0.1,0.3,0.1,0.4c0,0,0,0,0.1,0c0,0.1,0.1,0.2,0.1,0.3c-0.1,0.1,0,0.2,0,0.4
		c0.1,0.2,0.1,0.5,0.2,0.8C112.4,109.2,112.4,109.4,112.5,109.6z"/>
	<path class="st3" d="M93.5,111.3c0.1,0.1,0.2,0.1,0.2,0.2c0.1,0.1,0.1,0.2,0.2,0.2c0.1,0,0.1,0.1,0.2,0.1l0.1,0.1l0.2,0.1
		c0.2,0.1,0.2,0,0.3,0.1c0.1,0,0.1,0,0.1,0l0.1,0c0.1,0.1,0.2,0.1,0.2,0.2c0.2,0,0.3,0.1,0.4,0.2c0.1,0,0.1,0.1,0.1,0.1
		c0.2,0,0.3,0.2,0.4,0.1c0.1,0,0.1,0,0.1,0.1l0.1-0.1c0.1,0,0.1,0.1,0.3,0c0.1,0,0.1,0.1,0.1,0.1h0.1c0.1,0.1,0.6,0,0.7,0.1
		c0.6,0,1.1,0,1.7-0.1c0-0.1,0.2,0,0.2-0.1l0.1,0c0.2,0.1,0.4-0.2,0.7-0.1c0.1,0,0.1,0,0.1-0.1c0.1,0,0.3,0.2,0.4,0
		c0,0,0.1,0.1,0.1,0.1c0,0,0-0.1,0-0.1c0.2-0.1,0.4-0.1,0.5-0.2c0.1,0,0.2,0,0.2,0l0.1-0.1c0.3-0.1,0.5-0.3,0.8-0.4
		c0.1-0.1,0.2-0.1,0.2-0.2c0.1,0,0.1,0,0.2,0l0.1-0.2c0.2,0,0.3-0.2,0.5-0.2c0,0,0-0.1,0-0.1l0.1,0c0.1-0.1,0.1-0.1,0.1-0.2
		c0.2,0,0.3-0.2,0.3-0.3l0.1,0l0.1-0.1l0.1,0c0.1-0.1,0.2-0.3,0.4-0.4c0,0,0-0.1,0-0.1c0.1,0,0.1-0.1,0.1-0.2c0,0,0.2-0.1,0.2-0.1
		c0,0.1,0.1-0.2,0.1-0.1c0,0,0.2-0.4,0.3-0.5l-0.5-1.2c-0.2,0.2-0.8,1-1.1,1.1c0,0.2-0.3,0.3-0.5,0.4c0,0,0,0.1,0,0.1
		c-0.2,0-0.2,0.2-0.3,0.2c0,0-0.1,0-0.1,0c0,0.1-0.1,0.1-0.2,0.2c-0.2,0-0.2,0.2-0.3,0.3l-0.1,0c-0.2,0.2-0.5,0.2-0.6,0.4
		c-0.3,0.1-0.6,0.2-0.9,0.3c-0.1,0-0.1,0-0.1,0c0,0.1-0.3,0-0.3,0.1c-0.3,0-0.6,0-0.9,0.1c0-0.1-0.2,0-0.2-0.1c-0.3,0.1-0.5,0-0.8,0
		c-0.1,0-0.2,0-0.2-0.1c-0.2,0.1-0.4,0-0.6-0.1c-0.2,0-0.3-0.1-0.4-0.2v-0.1c-0.1,0-0.1,0-0.1-0.1c0-0.1,0.2-0.1,0.3-0.2
		c0.1-0.1,0.4-0.1,0.5-0.3c0,0,0.1-0.1,0.1-0.2c0.1-0.1,0.1-0.2,0.1-0.2c0.2-0.1,0.1-0.2,0.3-0.3c0,0,0.2-0.2,0.1-0.2
		c0.2-0.1,0.2-0.2,0.3-0.5c0.1-0.1,0.3-0.3,0.3-0.5c0.1,0,0-0.3,0.1-0.3c0.1-0.3-0.1-0.5-0.1-0.9L99,107c0-0.1-0.1-0.2-0.1-0.4
		c-0.2-0.1-0.1-0.2-0.3-0.3l-0.1-0.1h-0.1c-0.1-0.1-0.2-0.1-0.2-0.2c-0.2-0.1-0.4-0.2-0.7-0.3l-0.1,0l-0.1,0c-0.1,0-0.1,0-0.1,0.1
		c0-0.1-0.2,0-0.2-0.1c-0.1,0-0.2,0-0.3,0c-0.3-0.1-0.7,0.1-1-0.1c0,0.1-0.2,0-0.2,0.1c-0.1,0-0.3,0-0.3,0.1h-0.2
		c-0.2,0.2-0.4,0.3-0.6,0.3c-0.1,0,0,0.1-0.1,0.1h-0.1c-0.2,0.3-0.5,0.5-0.8,0.7c0,0-0.1,0.1-0.1,0.2c0,0-0.1,0-0.1,0
		c0,0.1,0,0.1-0.1,0.2c0,0,0,0.1,0.1,0.1c0,0-0.1,0.2-0.1,0.2c-0.1,0.2-0.1,0.4-0.2,0.5c0,0.4-0.1,0.6-0.1,1c0,0.3,0.1,0.5,0.1,0.8
		c0.2,0.1,0,0.1,0.1,0.2c0.1,0,0,0.1,0,0.1c0.1,0.1,0.2,0.2,0.2,0.3c0,0.1,0.1,0.1,0.2,0.1c0.1,0.1-0.1,0.2,0,0.3
		c0,0.1,0.2,0,0.1,0.1L93.5,111.3z M97,108.2c-0.1,0.1,0,0.2-0.1,0.2l0.1,0.1c-0.1,0.6-0.4,1.1-0.9,1.4c-0.1,0-0.1,0-0.1-0.1
		c0-0.1-0.1-0.3-0.1-0.4c0-0.1-0.1-0.1-0.1-0.1c0.1-0.1-0.1-0.2,0-0.4c-0.1,0-0.1,0-0.1-0.1c0.2-0.1,0-0.4,0.2-0.5l-0.1-0.1
		c0.1-0.1,0.1-0.3,0.2-0.4v-0.1c0.2-0.2,0.5-0.3,0.8-0.4c0.1,0,0.1,0,0.1,0C97.2,107.8,97.1,108,97,108.2L97,108.2z"/>
	<path class="st3" d="M106.5,107.7c0,0.1,0,0.1,0,0.2c0.4,0.4,0.3,1,0.5,1.4c-0.1,0.2,0,0.3-0.1,0.5l0.1,0.1c-0.1,0.3,0.1,0.7,0.1,1
		c-0.1,0.1-0.1,0.1-0.1,0.1c0,0.1,0,0.1,0.1,0.1l-0.1,0.1l0.1,0.1l-0.1,0.1c0.1,0,0.1,0.1,0.1,0.1c-0.1,0.1,0.1,0.3-0.1,0.5
		c0.1,0,0.1,0.1,0.1,0.2c-0.2,0.2-0.1,0.4-0.2,0.6l0.1,0.1L107,113l-0.1-0.1c-0.1,0-0.1,0.1-0.1,0.1c0.1,0.1,0.2,0.3,0.1,0.4
		l0.1,0.1c-0.2,0.1-0.3,0.3-0.3,0.5l-0.1,0.1c0.1,0,0.1,0.1,0.1,0.2c-0.1,0.1-0.2,0.3-0.3,0.4c0,0.1,0.1,0.2-0.1,0.3l0.1,0.1
		c-0.1,0.1-0.1,0.3-0.2,0.5c0.1,0,0.1,0.1,0.1,0.1c-0.2,0.1-0.4,0.3-0.3,0.5c-0.1,0.2-0.3,0.3-0.4,0.5c0.1,0.1-0.2,0.2-0.2,0.3
		s-0.2,0.1-0.1,0.2l0.1,0.1c-0.1,0-0.1,0-0.1,0c0,0.1-0.1,0.2-0.2,0.2c0,0.1,0,0.1-0.1,0.1c-0.1,0.1-0.2,0.2-0.3,0.3
		c0.1,0.1-0.2,0.2-0.1,0.2c-0.1,0.1-0.1,0.1-0.1,0.2c-0.1,0-0.1,0-0.1,0.1v0.1c0,0-0.1,0-0.1,0.1c-0.5,0.6-1.2,0.8-1.7,1.3L102,120
		c-0.1,0.1-0.1,0.2-0.2,0.2c0-0.1-0.2,0.1-0.2,0.1c-0.1,0.1-0.3,0-0.5,0c0-0.1-0.1,0-0.1-0.1l-0.1,0.1c-0.1-0.1-0.2-0.2-0.3-0.2
		c-0.1-0.1,0.1-0.1,0-0.1l0.1-0.1c0-0.1-0.1-0.1-0.2-0.1c-0.1-0.1,0.1,0,0.1-0.2l-0.2,0c-0.1-0.1-0.2-0.1-0.2-0.3
		c0-0.1,0.3-0.1,0.3-0.3c0.1,0,0.1,0,0.2-0.1l0-0.1c0.1-0.1,0.1-0.2,0.2-0.2c0,0.1,0,0,0.1,0s0.1,0,0.1-0.1c0-0.1,0-0.1,0.1-0.2
		c0.1,0,0.1,0,0.1,0c0.1-0.1,0.3-0.2,0.4-0.4c0-0.1,0-0.1,0-0.1c0.1-0.1,0.1-0.2,0.2-0.2c0,0.1,0,0.1,0.1,0.1c0.2-0.1,0.1-0.2,0-0.3
		c0.1-0.1,0.1-0.1,0.1-0.1c0,0.1,0.1,0,0,0c0,0.1,0.1-0.1,0.1-0.1c0.2-0.2,0,0,0.3-0.4c0,0,0.2-0.1,0.2-0.1c0,0,0.1-0.1,0.1-0.1
		c0-0.1,0-0.1-0.1,0c0.1-0.1,0.3-0.3,0.3-0.4c0.2,0.1,0-0.2,0.2-0.2c-0.1,0.1-0.1-0.1-0.1,0l0.2,0c0.1-0.1-0.2-0.1-0.1-0.3
		c0-0.1,0-0.1-0.1-0.1c0-0.1,0-0.1,0-0.1l0.1,0.1c0.1-0.1-0.1-0.3,0.1-0.4c0-0.1,0-0.1,0-0.2c0.2-0.1,0.1-0.1,0.2-0.3l-0.1-0.1
		c0,0.1,0.1-0.1,0.1-0.1c0-0.1,0-0.1,0-0.1c0.1-0.1,0.2-0.5,0.2-0.6c0,0.1-0.1-0.3,0-0.2c0.2-0.3,0.1-0.6,0.1-0.9
		c-0.1,0,0.1-0.1,0-0.3c-0.1,0-0.1,0-0.1,0c0.1-0.1,0.1-0.1,0.1-0.1c0-0.1,0-0.1-0.1-0.1c0-0.1,0-0.1,0.1-0.1c0-0.1,0-0.1-0.1-0.1
		c0.1-0.1,0.1-0.1,0.1-0.1c0-0.1-0.1-0.1-0.1,0c0-0.3-0.2-0.5-0.1-0.7c-0.1,0-0.1-0.1-0.1-0.1c0.2-0.2-0.1-0.5,0-0.7
		c-0.1,0-0.1-0.2-0.1-0.3c0.1-0.1-0.1-0.1-0.1-0.2c-0.1-0.3-0.2-0.6-0.2-0.9c-0.1,0.1-0.2-0.9-0.3-1.3c-0.2-0.2-0.1-0.5-0.1-0.8
		c0.1,0,0.1,0,0.1-0.1c-0.1-0.2,0.1-0.3,0.2-0.5c0.1,0,0.3-0.1,0.4,0c0.1-0.1,0-0.2,0-0.3c0.3,0,0.5-0.1,0.7-0.1
		c0,0.1,0,0.1,0.1,0.1c0.2,0,0.3,0.1,0.5,0.1c0,0.1,0,0.1,0.1,0.1c0.1,0,0.2,0,0.3,0.1c0.1,0,0.1,0,0.1-0.1l0.1,0.1l0.1-0.1
		c0.1,0,0.1,0.1,0.2,0c0.1,0.1,0.1,0.3,0.2,0.2C105.8,106.8,106.2,107.2,106.5,107.7z"/>
	<path class="st3" d="M77.2,108.9c0-0.1-0.2-0.1-0.2-0.1s-0.2,0.1-0.2,0c-0.1,0.1-0.1,0.2-0.2,0.3c-0.1,0-0.1,0.1-0.2,0.1
		c0,0.2,0,0.2,0.1,0.6c0.1,0,0.1,0.4,0.2,0.4c0-0.1,0.2,0.3,0.3,0.4l0.1,0c0,0,0,0.1,0,0.1l0.2,0.1c0,0.1,0.1,0.1,0,0.1
		c0.1,0,0.3,0.1,0.4,0.2c0,0,0,0.1,0,0.1c0,0,0.1,0,0.1,0c0.1,0,0,0.1,0,0.2l0.1,0c0,0.1,0.1,0.1,0.1,0.1c0.1,0.2,0.8,0.4,0.9,0.6
		l0.1,0c0.1,0.1,0.3,0.1,0.3,0.3l0.1,0c0,0,0.5,0.1,0.6,0.2c0.1,0,0-0.1,0-0.1c0.1,0.1,0.2,0.2,0.3,0.3c0.1,0,0.2,0,0.3,0
		c0.2,0.2,0.5,0.1,0.7,0.2c0,0,0.1,0.1,0.1,0.1l0.1,0l0,0.1c0.1-0.1,0.2,0,0.3-0.1l0,0.1l0.1,0c0,0.1,0,0.1,0,0.1
		c0.2,0,0.3,0.1,0.5,0c0,0,0.1,0.1,0.1,0.1c0.1,0,0.1,0,0.1-0.1c0.1,0,0.2,0.1,0.3,0.1l0,0.1c0.2-0.1,0.3-0.1,0.5,0
		c0-0.1,0.1,0,0.2-0.1l0,0.1c0.1-0.1,0.4-0.1,0.5-0.1l0,0.1c0.1,0,0,0,0,0c0.1-0.1,0.4-0.1,0.5-0.1c0.1,0.1,0.3,0.1,0.4,0
		c0,0,0.1,0,0.2,0c0.2-0.1,0.4-0.1,0.5,0c0.2-0.1,0.5-0.2,0.7-0.3l0.1,0c0.1,0,0.1,0,0.2-0.1c0.2-0.1,0.4-0.2,0.6-0.3
		c0,0.1,0.1,0,0.2,0l0-0.1c0.1,0,0.2-0.1,0.3-0.1c0,0,0,0,0.1-0.1c0.1-0.1,0.1-0.1,0.2-0.1c0.1-0.1,0.3-0.4,0.6-0.5
		c0-0.1,0.2-0.1,0.2-0.2c0,0,0.1,0,0.1,0l0-0.1c0.1,0,0-0.2,0.1-0.1c0,0,0.1-0.2,0.1-0.2c0.1-0.1,0.1-0.5,0.3-0.5c0,0,0,0,0-0.1
		c0.1-0.1,0-0.3,0.1-0.3c0,0,0-0.1,0-0.1c0.1-0.2,0.1-0.4,0.1-0.6c0,0,0-0.1,0-0.1c0,0,0.1,0,0.1-0.1c0,0,0-0.1,0-0.1l0.1,0
		c-0.1,0,0-0.1-0.1-0.2l0.1,0c-0.1-0.2,0-0.4,0-0.6l0.1,0c-0.1-0.1-0.1-0.3,0-0.4c0,0,0-0.1,0-0.1c-0.1-0.1,0-0.1,0-0.2
		c0-0.1-0.1-0.2,0-0.4c-0.1-0.1-0.1-0.1-0.1-0.2c0,0,0-0.1,0-0.1c0,0-0.1,0-0.1-0.1c0.1-0.1,0-0.1,0-0.2c-0.1,0,0-0.1-0.1-0.1
		c0-0.2-0.1-0.4-0.2-0.6c0.1-0.1-0.1-0.4-0.1-0.5l-0.1,0c0-0.1-0.1-0.2-0.2-0.2c0-0.1,0-0.1,0-0.1c0,0-0.1,0-0.1-0.1s0-0.1,0-0.1
		l0,0.1c-0.1-0.1-0.1-0.2-0.1-0.3c-0.2-0.2-0.2-0.4-0.4-0.7c-0.1,0.1,0-0.2-0.1-0.1c-0.1-0.2-0.2-0.4-0.4-0.5c0,0,0-0.1,0-0.1H88
		c-0.1,0,0-0.1,0-0.1c-0.3-0.2-1.3-0.3-1.4-0.6c-0.1,0-0.2-0.1-0.2,0l-0.1-0.1c-0.2,0.2-0.4-0.1-0.6-0.2l0,0.1c-0.1-0.2-0.2,0-0.3,0
		c0,0-0.1-0.1-0.1-0.1c-0.2,0.1-0.4,0-0.6,0.2l0-0.1l0.5,0.9c0,0.3,0.1,0.6,0.3,0.9c0,0,0.1,0.1,0.1,0.2c0,0.1,0,0.1,0,0.1
		c0.1,0.1,0.1,0.2,0.2,0.4c0,0-0.1,0-0.1,0.1c0.1,0.2,0.1,0.4,0.1,0.5c0.1,0.1,0,0.1,0.1,0.2c0,0,0,0.1,0,0.1c0,0.1,0,0.1,0,0.2
		c0,0.2,0,0,0.1,0.2c-0.1,0.1,0.1,0.4,0,0.5c0.1,0.1,0.1,0,0.1,0c0,0,0,0,0,0.1s0,0.1,0.1,0.1c0,0.1,0,0.2,0,0.3c0,0,0,0.1,0,0.1
		c0,0.1,0.1,0.1,0,0.2c0,0,0,0.2-0.1,0.3c0,0.1,0,0.2,0,0.3c0,0,0.1,0,0.1,0l0,0.1c0,0,0,0.1,0,0.1c0,0.1-0.1,0.2-0.1,0.3
		c0,0.3,0.1,0.5-0.1,0.6c0.1,0.1,0,0.1,0,0.2c-0.1,0,0,0.2-0.1,0.2c-0.1,0.2-0.1,0.2-0.2,0.3c-0.1,0.1-0.1,0.1-0.2,0.2l0,0.1
		c0,0-0.1,0-0.1,0c-0.1,0.1-0.3,0.2-0.4,0.3l0,0.1c-0.1,0-0.2,0.1-0.4,0.2c-0.2,0.1-0.3,0.1-0.5,0.2c-0.2,0-0.3,0.1-0.4,0
		c-0.1,0-0.1,0.1-0.2,0.1c-0.1,0-0.2,0-0.2,0c-0.1,0-0.1,0.1-0.1,0.1l-0.1,0l0-0.1c-0.1,0.1-0.2,0-0.3,0l0,0c-0.1,0.1-0.2,0-0.3,0.1
		c-0.1-0.1-0.3-0.1-0.5-0.1c0,0,0,0-0.1-0.1l-0.1,0c0,0-0.3,0-0.4,0l-0.1,0l0-0.1l-0.1,0c-0.1-0.1-0.5-0.1-0.6-0.2
		c-0.1,0.1-0.2,0-0.2,0c-0.3,0-0.6-0.1-0.8-0.2l0-0.1c-0.1,0.1-0.3,0-0.4-0.1c0,0-0.1,0-0.1,0c0-0.1-0.3-0.1-0.4-0.2
		c-0.1-0.1-0.1-0.1-0.2-0.2c-0.1,0.1-0.3-0.2-0.4-0.2l-0.2,0l-0.1-0.2l-0.2-0.2C77.3,108.9,77.2,109.1,77.2,108.9z"/>
	<path class="st3" d="M80.5,102.8c0.1,0,0.1,0,0.2,0c0.3,0.3,0.8,0.2,1.2,0.4c0.1-0.1,0.3,0,0.4-0.1l0.1,0.1c0.3-0.1,0.5,0.1,0.8,0
		c0.1,0,0.1,0,0.2-0.1c0.1,0,0.1,0,0.1,0.1l0.1,0l0,0.1l0.1,0c0,0.1,0,0.1,0.1,0.1c0.1-0.1,0.2,0,0.4-0.1c0,0.1,0.1,0.1,0.2,0.1
		c0.2-0.1,0.2,0,0.4-0.1l0,0.1l0.1,0l0-0.1c0-0.1,0.1,0,0.1,0c0.1,0.1,0.2,0.2,0.3,0.1l0,0.1c0.1-0.1-0.7-0.1,0.5-0.1l0.2-0.1
		c0,0.1,0.1,0.1,0.1,0.1c0.2-0.1,0.3-0.1,0.4-0.2c0.1,0,0.1,0.1,0.2,0l0,0.1c0.1,0,0.3,0,0.4,0c0,0-0.1-0.1,0,0
		c0.2-0.1,0.4-0.2,0.6-0.1c0.2,0,0.3-0.1,0.5-0.1c0.1,0.1,0.2-0.1,0.3,0s0.1-0.1,0.2,0l0,0.1c0,0,0,0,0.1-0.1c0.1,0,0.2,0,0.2,0
		c0,0,0.1,0.1,0.1,0c0.1,0,0.2-0.1,0.4-0.1c0,0.1,0.1,0,0.1,0c0.1,0,0.2,0,0.2,0c0,0,0.1-0.1,0.1-0.1l0.1,0c0.1,0,0.1,0,0.1-0.1
		c0.6-0.1,1-0.4,1.6-0.4l0.3-0.1c0.1-0.1,0.2,0.1,0.2,0c0,0,0.1-0.1,0.2-0.1c0.2,0,0.2-0.3,0.3-0.4c0,0,0-0.1,0-0.1l0.1,0
		c0-0.1,0-0.3,0-0.4c0-0.1-0.1,0-0.1-0.1l0-0.1c0,0,0-0.1,0-0.1c0-0.1-0.2,0-0.2-0.1l0.1-0.2c-0.1-0.1-0.3-0.2-0.4-0.2
		c-0.1,0.1-0.1,0.1-0.2,0.1l0-0.1c-0.1,0.1-0.2,0-0.2,0c0,0,0,0-0.1,0.1s-0.1,0.1-0.1,0.1c0,0-0.1-0.1-0.2,0c0,0,0,0-0.1,0.1
		c-0.4,0.1-0.7,0.1-1.1,0l-0.2,0c0,0,0,0.1,0,0c0,0-0.1,0-0.2,0c-0.2,0-0.8,0.1-0.7,0c-0.1,0-0.4,0.1-0.5,0c0,0.2-0.2-0.1-0.3,0
		c0.1,0-0.1,0,0,0l0,0.1c-0.2,0-0.2-0.1-0.3,0c-0.1,0-0.1,0,0-0.1c-0.1,0-0.1,0-0.1,0l0,0.1c-0.1,0-0.2-0.1-0.3-0.1l-0.2-0.1
		c-0.2,0.1-0.4,0.1-0.5,0.1l0-0.1c0.1,0-0.1,0.1-0.1,0l-0.1,0c-0.2,0.1-0.4,0.1-0.6,0.1c0.1,0-0.2-0.2-0.2-0.1
		c-0.3,0.1-0.6-0.1-0.9-0.1c0-0.1-0.1,0.1-0.2,0c0-0.1,0-0.1,0-0.1c-0.1,0-0.1,0-0.2,0.1c-0.1,0-0.1,0-0.1-0.1c-0.1,0-0.1,0-0.1,0
		c-0.1,0-0.1,0-0.1-0.1c-0.1,0-0.1,0.1-0.2,0.1c-0.1,0,0-0.1,0-0.1c-0.2,0-0.4-0.2-0.6-0.1c0,0,0-0.1-0.1-0.1
		c-0.2,0.1-0.5,0-0.7,0.1c0-0.1-0.2-0.1-0.3-0.1c-0.1,0-0.1-0.1-0.2-0.1c-0.2-0.1-0.5-0.1-0.8-0.1c0.1-0.1-0.8-0.1-1.1-0.2
		c-0.2-0.1-0.5,0-0.7-0.1c0,0.1,0,0.1-0.1,0.1c-0.2-0.1-0.3,0.1-0.4,0.2c0,0.1-0.1,0.2-0.1,0.3c-0.1,0.1-0.1,0.1-0.2,0.1
		c0,0.2-0.1,0.2-0.1,0.4c0.1,0,0.1,0,0.1,0.1c0,0.2,0.1,0.2,0,0.4c0.1,0,0.1,0,0.1,0.1c0,0.1,0,0.2,0.1,0.2c0,0.1,0,0.1-0.1,0.1
		l0,0.1l-0.1,0.1c0,0,0,0.1,0,0.2c0,0.1,0.2,0.1,0.1,0.2C79.7,102.3,80.1,102.6,80.5,102.8z"/>
	<path class="st4" d="M139.2,109.3c0.1-0.2,3.2-4.1,3.2-4.1l-1.4-2c-0.6,0.1-1.3,0.2-1.9,0.3c-0.8,0-4.8-0.1-4.8-0.1l0.3,1.7
		c0,0,4-0.2,4.8-0.3c-1.3,2.6-5.8,9.3-5.8,9.3l1.2,0.5c0,0,1.4-1.6,3.6-4.2c1,1.2,2,2.6,2.7,4l0.1,0.2l1.5-2.2l-0.1-0.1
		C141.6,111.2,140.4,110.2,139.2,109.3z"/>
	<path class="st4" d="M143.6,108.1c-1.1-0.1-2.5-0.2-2.5-0.2l0.1,1.9c0,0,2.2-0.4,2.4-0.4c0.1,2.9,0.1,8.7,0.1,8.7l1.7-0.8v-0.1
		c0-0.5,0.5-14.7,0.5-14.7l-2.7-0.5C143.3,101.9,143.4,104,143.6,108.1z"/>
	<path class="st4" d="M147.2,119l1.8-1l0.6-16.5l-3-0.2C146.7,101.3,147.2,116,147.2,119z"/>
	<path class="st4" d="M236.6,119l1.9-1l0.6-16.5l-3.1-0.2C236.1,101.3,236.6,116,236.6,119z"/>
	<path class="st4" d="M220.6,101.6l-3.1-0.2c0,0,0.5,14.7,0.5,17.7l1.9-1l0.3-8.6c1,0.2,2.9,0.4,2.9,0.4c0.1-0.6,0.1-1.8,0.1-1.8
		s-2,0.1-3,0.2L220.6,101.6z"/>
	<path class="st4" d="M154.7,109.5c0,0,4.3-1.9,6.2-3c1.7,1,4.6,2.6,5.5,3.1l0.1,0l1-2l-5.2-2c0.3-0.2,3.9-2,3.9-2l-1.9-1.7
		c-1.6,0.7-10,0.2-10,0.2l0.1,1.4c0,0,6,0,6.5,0c-2.4,1.9-5,3.7-7.8,5.1L154.7,109.5z"/>
	<path class="st4" d="M152,110.5l0.5,1.5c0,0,2.6-0.1,6.4-0.1c0.4,3.9,0.4,5.1,0.5,7.1l2.4-1.1c0,0,0.3-4.6,0.3-6l6.7,0l0.2-1.4
		C160,110.8,152,110.5,152,110.5z"/>
	<path class="st4" d="M255.8,110.5l0-1.6c0,0-6.9,0.4-9.1,0.2c0-0.4-0.2-4.8-0.2-5.4c4.5-0.2,9,0.1,9,0.1l0.1-1.6l-12,0.1l0.2,8.3
		L255.8,110.5z"/>
	<path class="st4" d="M251.1,115.6c0,0,0.2-4.2,0.2-4.2l-3.1-0.2c0,0,0.2,3.4,0.3,4.4c-2.8,0-7.4-0.2-7.4-0.2l0.2,1.7
		c0,0,9.2-0.2,16.6-0.1l0.1-1.6C258,115.5,254.9,115.6,251.1,115.6z"/>
	<path class="st4" d="M197.6,109.9l0.4-7.6l-2.6-0.2l0.1,2.8c-0.9,0-2.7,0-3.3,0l-0.1-2.4l-2.6-0.2l0.7,7.6
		C190.2,109.9,194.7,109.8,197.6,109.9z M192.3,106.3c1.1,0,2.6,0,3.3,0l0.1,2.3l-3.3,0L192.3,106.3z"/>
	<path class="st4" d="M201.2,104.1c-0.8-0.1-2-0.4-2.4-0.4l0.1,1.8l2.3-0.2c0,0.6,0,1.1,0.1,1.8c-0.8,0-2,0-2.5,0l0,1.5l2.6-0.3
		c0,0.9,0.1,1.8,0.1,2.9l1.8-0.8c0.1-0.7,0.7-6.2,0.8-8.9l-3-0.2C201.1,102.3,201.1,103.2,201.2,104.1z"/>
	<path class="st4" d="M196,117l-0.2-1.4c2.9,0.1,7-0.1,7-0.1l0.4-3.8c-2.5,0.2-10.6,0-10.6,0l0.3,1.5c1.3,0,6.5-0.1,7.6-0.1
		l-0.1,1.3c-1.6,0-5.7-0.1-7.6-0.2l0.8,4c3.4-0.1,9.8-0.1,9.8-0.1l0.1-1.5C201,117,198.5,117.1,196,117z"/>
	<path class="st4" d="M216.2,105.3l-1.7-1.9c-0.7,0.2-1.5,0.2-2.2,0.3c-1.9-0.1-4-0.1-5.2-0.2l0.4,1.8c3-0.1,5.4-0.3,5.4-0.3
		c-0.8,1.5-4.4,6.2-6.6,9.1l1.2,0.5c0.9-0.8,2.4-2.4,4-4.1c1.3,1.3,2.5,2.6,3.6,4l1.2-2.4c-1.1-0.8-2.8-1.9-3.9-2.6
		C213.9,107.7,215.4,106.1,216.2,105.3z"/>
	<path class="st4" d="M232.6,103.5l0.1-1.3c-1.7,0-5.5-0.3-6.4-0.3l0.2,1.7C226.5,103.6,230.7,103.6,232.6,103.5z"/>
	<path class="st4" d="M234.1,106.5l-1.7-1.7c-0.8,0.2-1.6,0.2-2.4,0.2c-2-0.1-3.6-0.1-5-0.1l0.4,1.9c1.8-0.1,5.1-0.5,5.1-0.5
		c-1.9,2.8-4,5.4-6.2,7.9l1.2,0.6c1-0.9,2.5-2.3,3.8-3.6c1.2,1.1,2.4,2.3,3.5,3.6l1.3-2.3c-1.2-0.8-2.8-1.8-3.7-2.4
		C232.5,108.2,234.1,106.5,234.1,106.5z"/>
	<path class="st4" d="M185.1,108.5l-0.1-1.5c-1.4,0.2-7.1,0.2-9,0.1l0-1.3c2.7,0,5.7,0,8.9,0.2v-1.5c-2.7,0.1-5,0.2-8.9,0.1l0-1.1
		c2.3,0.1,6.2,0.1,9,0l0-1.4c-3.9,0.2-7.9,0.1-11.9-0.1l0.3,6.4C175.1,108.4,180.4,108.3,185.1,108.5z"/>
	<path class="st4" d="M173.1,113.1l0.2,1.4c4.7-0.1,9.1,0,9.1,0s0.2,3.5,0.2,4.6l2.2-1.1l0.6-4.9
		C185.5,113.1,175.6,113.1,173.1,113.1z"/>
	<path class="st4" d="M170.9,110l0.5,1.5c8.3-0.3,16.1-0.2,16.1-0.2l0.2-1.4C178.7,110.4,170.9,110,170.9,110z"/>
</g>
</svg>
